<?xml version="1.0" encoding="utf-8"?>
<!-- Generator: Adobe Illustrator 27.0.0, SVG Export Plug-In . SVG Version: 6.00 Build 0)  -->
<svg version="1.1" id="圖層_1" xmlns="http://www.w3.org/2000/svg" xmlns:xlink="http://www.w3.org/1999/xlink" x="0px" y="0px"
	 viewBox="0 0 32 32" style="enable-background:new 0 0 32 32;" xml:space="preserve">
<style type="text/css">
	.st0{fill:#FFFFFF;}
</style>
<path class="st0" d="M15.9,0.6c4.9,0.1,9.2,1.5,12.7,5.1c2.3,2.3,3.6,5.2,3.4,8.6c-0.1,2.8-1.2,5.1-3.1,7.2c-2.4,2.8-5.3,4.9-8.4,7
	c-1.3,1-2.8,1.8-4.2,2.6c-0.5,0.2-1.1,0.7-1.5,0.3s-0.2-1-0.1-1.4c0-0.5,0.2-1.1,0.2-1.5c0-0.9-0.2-1.2-1.1-1.4
	c-0.8-0.2-1.6-0.3-2.4-0.5c-3.6-1.1-6.6-2.8-8.8-5.7c-3.9-5-3.3-11.6,1.6-16c2.9-2.5,6.3-3.8,10.1-4.1C14.9,0.7,15.4,0.6,15.9,0.6
	 M15.9,13.4L15.9,13.4c1.2,1.3,2.1,2.8,3.2,4.2c0.3,0.4,0.6,0.6,1.1,0.4c0.5-0.1,0.6-0.5,0.6-1c0-0.9,0-1.8,0-2.7c0-1.2,0-2.4,0-3.6
	c0-0.4-0.2-0.7-0.6-0.8c-0.3-0.1-0.6,0-0.9,0.2c-0.2,0.2-0.2,0.5-0.2,0.8c0,1.2,0,2.3,0,3.6c-0.3-0.1-0.3-0.3-0.4-0.4
	c-1-1.2-1.8-2.5-2.7-3.7C15.7,10,15.4,9.8,15,9.9c-0.5,0.2-0.6,0.5-0.6,1c0,2,0,4,0,6c0,0.7,0.3,1.1,0.8,1.1c0.6,0,0.9-0.4,0.9-1.1
	C15.9,15.8,15.9,14.5,15.9,13.4 M21.8,13.9c0,1.1,0,2,0,3.1c0,0.7,0.3,1,0.9,1c1.1,0,2.1,0,3.2,0c0.5,0,0.9-0.3,0.9-0.9
	c0-0.5-0.3-0.8-0.9-0.9c-0.5,0-0.9,0-1.3,0c-1.1,0-1.1,0-1.1-1.1c0-0.4,0.1-0.5,0.5-0.5c0.6,0,1.2,0,1.8,0c0.5,0,0.9-0.3,0.9-0.9
	c0-0.6-0.4-0.8-0.9-0.9c-0.4,0-0.9,0-1.2,0c-1.1,0-1.1,0-1.1-1.1c0-0.4,0.1-0.5,0.5-0.5c0.6,0,1.2,0,1.7,0c0.7,0,1-0.3,1-0.9
	c0-0.6-0.4-0.9-1.1-0.9c-1,0-1.8,0-2.8,0c-0.8,0-1.1,0.3-1.1,1.2C21.8,12,21.8,13,21.8,13.9 M5.7,13.9c0,1.1,0,2.1,0,3.2
	c0,0.7,0.3,1,0.9,1c1.1,0,2,0,3.1,0c0.5,0,0.8-0.3,0.9-0.8c0-0.5-0.3-0.9-0.9-0.9c-0.6,0-1.2,0-1.7,0c-0.5,0-0.7-0.1-0.7-0.6
	c0-1.6,0-3.2,0-4.8c0-0.7-0.3-1-0.8-1c-0.6,0-0.9,0.4-0.9,1C5.7,11.9,5.7,12.9,5.7,13.9 M13,13.9c0-1,0-2,0-3c0-0.7-0.3-1.1-0.9-1.1
	c-0.5,0-0.8,0.4-0.8,1.1c0,2,0,4,0,6c0,0.7,0.3,1.1,0.8,1.1s0.9-0.4,0.9-1.1C13,15.9,13,15,13,13.9"/>
</svg>
