<?xml version="1.0" encoding="utf-8"?>
<!-- Generator: Adobe Illustrator 27.0.0, SVG Export Plug-In . SVG Version: 6.00 Build 0)  -->
<svg version="1.1" id="圖層_1" xmlns="http://www.w3.org/2000/svg" xmlns:xlink="http://www.w3.org/1999/xlink" x="0px" y="0px"
	 viewBox="0 0 442 86" style="enable-background:new 0 0 442 86;" xml:space="preserve">
<g>
	<path d="M6.7,57.9v9c0,0.6-2.2,2.8-5.6,2.8H0V5.4L7.6,9h9.8l3.4-4.7l7.1,6.9c-0.4,0.7-1.6,1.5-3.1,1.9v49.4
		c-0.1,0.8-3.2,2.9-5.6,2.9h-1v-7.6L6.7,57.9L6.7,57.9z M6.7,31.9h11.5V11.7H6.7V31.9z M18.2,34.5H6.7v20.8h11.5V34.5z M66,9.6
		c-0.5,0.8-1.7,1.6-3.1,1.9v63.3c0,6.2-1.1,10-10.3,11.1c-0.3-2.7-0.8-4.8-2.1-6c-1.4-1.5-3.5-2.5-7.7-3.2v-1.4
		c0,0,9.4,0.7,11.3,0.7c1.5,0,1.9-0.5,1.9-2.1V52.1H38.7c-1.8,13.1-7,25.3-21.3,33.8L16.5,85c13.9-13,16.3-29.2,16.3-48.3v-33
		l7.9,3.7h14.5l3.3-4.8L66,9.6z M55.9,49.4V30.9H39.6v5.7c0,4.3-0.1,8.6-0.6,12.9L55.9,49.4L55.9,49.4z M39.6,28.2h16.3V10.1H39.6
		V28.2z"/>
	<path d="M88.1,13.5c-4.5,7.9-10,14-15.9,18.1l-0.8-1C76.5,23.8,82,12.4,85.1,0.5l9.7,4.2c-0.3,1-1.3,1.7-2.9,1.6
		c-0.7,1.6-1.5,3.1-2.2,4.6h10.1l3.4-5.7c0,0,4,3.9,6.4,6.9c-0.2,1-1,1.5-1.9,1.5H88.1V13.5z M100.8,64.2C96,67.5,89,72.2,79.2,78
		c-0.3,1.2-1,2-1.7,2.3l-3.9-9.6c2.2-0.5,5.6-1.3,10-2.6V37.5h-8.5l-0.6-2.7h17l3.6-5.5c0,0,4,3.8,6.4,6.7c-0.2,1-1,1.5-1.9,1.5
		h-9.4v28.7c3.3-1,6.8-2,10.3-3.1L100.8,64.2z M89.5,16.3c14.8,0.6,10.3,14.2,4.6,10C93.5,23,91,19.1,88.8,17L89.5,16.3z
		 M138.8,75.1c1.7,0.9,2,1.8,2,3.5c0,3-2.4,4.8-8.6,4.8h-3.1c-4.7,0-5.4-2.1-5.4-7.1V35.6h-8v8.7c0,3.3-0.2,6.9-0.8,10.6
		c9.3,7.8,6.7,16.6,1.3,13.8c-0.8-1.8-2-3.7-3.4-5.8c-3.1,8.3-9.3,16.6-21.9,22.7l-0.7-1.2c11.3-8.3,16-17.9,18-27.3
		c-3-3.3-6.2-6.5-9-8.8l0.7-0.9c3.6,1,6.6,2.3,9.1,3.7c0.2-2.4,0.3-4.6,0.3-6.8v-8.7h-6.8l-0.7-2.7h21l3.5-4.7l6.7,6.9
		c-0.5,0.6-1.3,1.2-2.8,1.4v37.6c0,1.1,0.1,1.5,1,1.5h1.4h1.6c0.4,0,0.7-0.2,1.1-0.8c0.4-1.2,1.3-6.1,2.2-10.2h0.8L138.8,75.1z
		 M134.7,4.8c0,0,4.5,4.2,7.1,7.2c-0.1,1-0.9,1.5-2,1.5h-22.7c-3.7,6.5-7.9,11.8-12.5,15.5l-1-0.8c4-6.7,7.9-17.2,10.2-27.8l9.7,4.2
		c-0.4,1-1.3,1.8-2.9,1.6c-0.7,1.6-1.3,3.1-2.1,4.6h12.4L134.7,4.8z M119.6,16.3c15.7,0.5,10.7,14.7,4.6,10
		c-0.4-3.3-2.9-7.2-5.2-9.3L119.6,16.3z"/>
	<path d="M173.2,39c-0.5,0.8-1.2,1.2-2.8,1.4c-1,9.7-3,18.9-7,27.1c8.1,6.3,19.3,7.7,35.2,7.7c4.1,0,13.3,0,18.1-0.1v1.2
		c-2.9,0.6-4.3,3.7-4.5,7.1H198c-17.2,0-28.9-2.3-37-11.5c-3.4,5.5-7.9,10.2-14.1,14l-0.6-1.3c5.2-4.7,8.9-10.3,11.5-16.8
		c-3.4-5.4-6.2-12.7-8.4-22.1l1-0.6c2.3,8.1,5.3,14.1,8.9,18.5c2.5-7.4,3.7-15.6,4.4-24.1h-6.1l-2.5,2.8l-6.2-5.2
		c0.7-0.6,1.7-1.3,2.7-1.7c2.9-6.1,6.7-16.1,8.8-22.6h-12.9l-0.7-2.7h13.5l3.4-4.2l6.7,7.4c-0.6,0.8-1.9,1.3-3.4,1.5
		c-2.1,5.8-6,15.6-8.8,22h4.9l3.6-4.5L173.2,39z M211.8,16.7c0,0,3.8,4.4,6,7.3c-0.2,1-1,1.5-2,1.5h-8.2v12.9
		c-0.1,0.6-3.4,2.3-5.5,2.3h-1v-3.1h-8.5V47h8.5l3.7-6c0,0,4.4,4.2,7,7.2c-0.2,1-1,1.5-2,1.5h-17.2v9.6h11l4.1-6.5
		c0,0,4.9,4.4,7.8,7.7c-0.2,1-1,1.5-2.1,1.5h-20.8v9c0,0.8-2.8,2.5-5.4,2.5h-1.4V61.9H169l-0.6-2.7h17.2v-9.6h-12.9L172,47h13.5
		v-9.4h-12l-0.7-2.7h12.7v-9.4h-17.8l-0.6-2.7h18.4v-9.2h-12.4l-0.7-2.7h13.1V1l9.6,1.2c-0.2,1.3-0.7,2.2-2.8,2.6V11h7.8l3.3-4.4
		l7.1,6.7c-0.5,0.6-1.7,1.5-3.1,1.8v7.8h1L211.8,16.7z M192.4,22.8h8.5v-9.2h-8.5V22.8z M200.9,25.5h-8.5v9.4h8.5V25.5z"/>
	<path d="M237.7,11.7c-4.5,6.2-9.9,10.7-15.4,13.6l-0.8-1.1c5.1-5.2,10.3-14,13.3-24l9.3,4.7c-0.4,1-1.3,1.7-3.1,1.5
		c-0.5,0.9-1.1,1.8-1.6,2.7h9.8l3.5-5.5c0,0,3.8,3.8,6.1,6.7c-0.2,1-0.9,1.5-1.9,1.5L237.7,11.7L237.7,11.7z M222.4,82.8
		c7.6-4.8,15.3-13.3,19-19.7l8.4,6.2c-0.4,0.8-1.2,1.2-2.8,0.7c-5.3,5.6-14.5,11.1-23.8,14L222.4,82.8z M240.9,29.2v15.2
		c3.6-0.6,7.4-1.3,11.3-2l0.1,1.3c-5.2,2.6-12.8,5.9-23.3,10.1c-0.4,1.2-1.1,1.9-1.9,2.1l-3.4-9c2.3-0.3,6-0.7,10.6-1.5V29.2h-8.5
		l-0.6-2.7h17l2.8-4.4c-0.5-0.1-0.9-0.3-1.3-0.5c-0.5-2.7-2.8-6-4.7-7.7l0.7-0.7c10.9-0.3,10.3,7.8,6.9,9c1.3,1.3,3.7,3.7,5.5,5.6
		c-0.2,1-1,1.5-2,1.5h-9.2V29.2z M282.6,51.9c0,0,4.9,4.8,7.9,8.2c-0.2,1-1,1.5-2.1,1.5h-28.1v21.8c0,0.7-3.2,2.4-6.1,2.4h-1.3V61.6
		h-28l-0.6-2.7h28.6v-7.5l10.3,1.2c-0.1,1.2-0.7,2.1-2.8,2.5v3.8h17.8L282.6,51.9z M288.8,43.6c1.5,0.8,1.8,1.6,1.8,2.9
		c0,2.7-2.1,4.2-7.6,4.2h-3c-4.1,0-4.7-1.6-4.7-5.8V28.6h-9.4V32c0,1.7-0.2,3.7-0.7,5.7c8.1,4.1,7.2,11.5,2.6,10.4
		c-1.2-1.6-3.1-3.3-5.2-5c-2.6,3.7-7.3,7-15.4,9.4l-0.6-1.2c6.7-3.5,10-7.4,11.6-11.4c-2.2-1.5-4.4-2.7-6.4-3.5l0.6-1.2
		c2.5,0,4.9,0.3,7,0.6c0.2-1.3,0.3-2.6,0.3-3.8v-3.4h-5.8l-0.7-2.7h21.4l3.1-3.8l5.6,6c-0.4,0.5-1.1,1-2.5,1.3V43
		c0,0.9,0.1,1.2,1,1.2h1.7h1.4c0.4-0.1,0.7-0.1,0.9-0.6c0.5-0.8,1.2-3.8,1.9-6.9l0.9,0.1L288.8,43.6z M284.6,3.1
		c0,0,4.2,4.1,6.9,7.1c-0.2,1-1,1.5-2,1.5h-23c-3.3,4.9-7.2,8.8-11.2,11.4l-0.9-0.9c3.4-5.1,6.9-13.4,8.9-21.9l9.2,4.5
		c-0.4,1-1.3,1.7-2.9,1.5c-0.4,1-1,1.9-1.5,2.8h12.7L284.6,3.1z M264.9,65.1c27.5,2.4,26.6,21.5,18.3,18.5
		c-3.8-6-12.4-13.7-18.8-17.5L264.9,65.1z M269,13.4c13.6,0.4,8.4,12.2,3.2,7.9c-0.4-2.6-2.2-5.7-3.8-7.2L269,13.4z"/>
	<path d="M365.8,9c-0.5,0.7-1.7,1.5-3.1,1.9v71.3c-0.1,0.7-3.3,2.8-5.8,2.8h-1v-4.7h-48.4v2.5c0,1.2-2.6,3.2-5.6,3.2h-1.2V2.8
		l7.4,3.9h47l3.6-4.8L365.8,9z M355.8,9.4h-48.4v68.3h48.4V9.4z M348.3,42.7c-0.1,0.6-2.7,1.8-4.6,2c10.4,2.2,8.8,8.1,5.8,8.9
		c1.1,1.1,3.6,3.4,5.2,5.2c-0.2,1-1,1.5-1.9,1.5h-11v6.4c0,5.2-1,8-8.1,8.8c-0.1-1.9-0.4-3.5-1.3-4.4c-0.8-0.9-2.2-1.7-5-2.2v-1.4
		c0,0,5.8,0.5,7,0.5c1,0,1.3-0.5,1.3-1.6v-6.2h-15.2c10,3,5.4,13.1,0.6,8.9c-0.3-3.1-2.4-6.8-4.3-8.8l0.1-0.1h-7.3l-0.6-2.6h26.8
		v-5.3l8.5,1c-0.2,1.3-0.9,1.9-2.5,2.3v2h3.9l2.7-4.1c-0.7-0.1-1.3-0.5-1.9-1.2c-0.5-0.9-1.2-1.8-2-2.7c-6.8,1.1-16.4,2.3-29.5,3.7
		c-0.5,1.2-1.1,1.7-1.8,1.9l-3.2-7.1c4,0.1,10.6,0.1,18.5-0.1v-4.8h-7.9v1c0,0.6-2.7,2.1-5,2.1h-0.9V22.6l6.3,3.2h7.5V21h-18
		l-0.5-2.6h18.5v-6.7l8.2,1c-0.1,1.1-0.7,1.9-2.3,2.3v3.4h9.7l3.3-4.9c0,0,3.7,3.5,6,6.1c-0.2,0.9-0.8,1.4-1.9,1.4h-17.2v4.8h7.5
		l2.8-3.6l6,5.5c-0.4,0.5-1.3,1.2-2.3,1.4L348.3,42.7L348.3,42.7z M320.6,33.1h7.9v-4.7h-7.9V33.1z M328.4,35.7h-7.9v4.8h7.9V35.7z
		 M334.3,33.1h8v-4.7h-8V33.1z M342.4,35.7h-8v4.8h8V35.7z M342.1,47.7c-1.1-0.8-2.5-1.6-4.2-2.3l0.4-1.5c1.5,0.1,2.8,0.3,4,0.5
		v-1.2h-8v4.7L342.1,47.7z"/>
	<path d="M438.6,31.5c-0.5,0.6-1.6,1.1-3.1,0.4c-2.2,2.3-5.8,5.7-9.7,8.8c3.1,12.5,9,23.5,16.3,28.5l-0.2,1c-2.3,0.6-4.2,2.9-5,6.8
		c-6.7-7.6-10.3-19.5-12.5-35.2c-1,0.8-2.2,1.7-3.2,2.5c5.3,14.8,4.1,31.6-0.2,37.8c-1.8,2.7-5.1,3.7-10,3.7c0-2.6-0.6-4.4-1.6-5.5
		c-0.9-1-3.5-2.1-6.4-2.9v-1.3c3.1,0.4,8.5,0.7,10.4,0.7c1.1,0,1.8-0.2,2.3-1c1.7-2.9,2.8-9.8,2.5-17.8
		c-6.1,6.9-14.7,13.5-23.6,17.5l-0.5-1.2c9.1-6.6,17.7-17.4,22.9-27.6c-0.3-1.4-0.6-2.7-1-4.2c-4.7,5.9-11.6,11.5-19,14.8
		c-0.3,7.9-3.1,12-10.4,12.2c0-2.4-0.3-5.5-0.9-6.6c-0.6-0.8-1.9-1.5-3.5-1.9v-1.3h4.8c0.7,0,1.2-0.1,1.7-0.5
		c1.1-0.8,1.6-2.7,1.6-5.8c0-6.5-1.6-13.5-6-19.8c1.5-5.9,3.7-16.6,4.9-23.9h-7.6v73.5c0,0.5-2.2,2.7-5.4,2.7H375V3.4l7.6,3.7h6.1
		l4-4.7l7.3,8.5c-0.6,0.8-1.6,1.1-3.4,1.1c-2.4,5.6-6.9,15.7-10.3,21.4c7.6,6.5,10.7,15,10.7,22.3c6.6-5.7,12.5-14.3,15.8-22.5
		l-0.6-1.3c-4.6,4-10,7.3-15.8,10l-0.7-1.3c7.1-5.1,13.3-12.7,17.2-20.3h-16.6l-0.6-2.7H420c1.6-4.5,3.4-11.5,4.9-17.6l9.4,4.3
		c-0.4,1-1.3,1.7-3,1.6c-2.5,4.2-5.8,8.4-8.8,11.7h8.2l3.7-6c0,0,4.2,4.2,6.7,7.2c-0.2,1-0.9,1.5-1.9,1.5H422
		c-2.2,3.8-5.1,7.2-8.5,10.3c2.8,3.5,5.1,7.3,6.8,11.3c4.2-6,9-13.9,11.2-18.3L438.6,31.5z M402,0.7c18,4.8,12.6,20.3,6.2,14.9
		c-0.8-4.8-4.2-10.7-7-14.3L402,0.7z"/>
</g>
</svg>
