<?xml version="1.0" encoding="utf-8"?>
<!-- Generator: Adobe Illustrator 27.0.0, SVG Export Plug-In . SVG Version: 6.00 Build 0)  -->
<svg version="1.1" id="圖層_1" xmlns="http://www.w3.org/2000/svg" xmlns:xlink="http://www.w3.org/1999/xlink" x="0px" y="0px"
	 viewBox="0 0 563 203" style="enable-background:new 0 0 563 203;" xml:space="preserve">
<style type="text/css">
	.st0{fill:#FFFFFF;}
	.st1{fill:#FFFFFF;stroke:#FFFFFF;stroke-width:2.193;stroke-miterlimit:10;}
</style>
<g>
	
		<image style="overflow:visible;opacity:0.65;" width="589" height="229" xlink:href="606DD0B0458D05B4.png"  transform="matrix(1 0 0 1 -13 -13)">
	</image>
	<g>
		<g>
			<path class="st0" d="M45.5,101.5c0,4.5-2.1,7.8-6.3,9.9c-3.4,1.7-7.8,2.5-13.3,2.4c-0.9,0-3.8,0-8.7-0.1V69.3h8.1
				c4.5,0,8.3,0.7,11.3,2c3.9,1.7,5.9,4.4,5.9,8c0,2.2-1,4.3-2.9,6.4c-1.7,2-3.8,3.4-6.1,4.3c3.4,0.6,6.2,1.7,8.3,3.5
				C44.3,95.7,45.5,98.3,45.5,101.5 M41,101.5c0-3.6-1.2-6.3-3.6-8.1c-2-1.5-4.8-2.3-8.2-2.3h-2.6v-1.4h2.1c3.3,0,5.7-1.2,7.4-3.7
				c1.2-1.8,1.8-3.9,1.8-6.2c0-6.2-4.4-9.2-13.2-9.2h-2.9v41.8h2.6C35.4,112.4,41,108.8,41,101.5"/>
			<polygon class="st0" points="73.8,111.1 56,111.1 56,75.3 73.2,75.3 73.2,76.4 59.7,76.4 59.7,90.9 71.9,90.9 71.9,92 59.7,92 
				59.7,110 73.8,110 			"/>
			<polygon class="st0" points="105.5,76.4 95.5,76.4 95.5,111.1 91.8,111.1 91.8,76.4 81.6,76.4 81.6,75.3 105.5,75.3 			"/>
			<polygon class="st0" points="138.4,76.4 128.3,76.4 128.3,111.1 124.6,111.1 124.6,76.4 114.4,76.4 114.4,75.3 138.4,75.3 			"/>
			<polygon class="st0" points="164.1,111.1 146.2,111.1 146.2,75.3 163.4,75.3 163.4,76.4 150,76.4 150,90.9 162.1,90.9 162.1,92 
				150,92 150,110 164.1,110 			"/>
			<path class="st0" d="M198,111.1h-4.1l-12.3-19.9c0.6,0,1.2,0.1,1.7,0.1c5.5,0,8.2-2.4,8.2-7.2c0-5.3-3.4-7.9-10.3-7.8h-2.5v34.8
				h-3.7V75.4c0.6,0,2.8-0.1,6.7-0.1c9-0.1,13.5,2.8,13.5,8.7c0,2.3-0.8,4.2-2.4,5.7c-1.6,1.5-3.8,2.4-6.5,2.7L198,111.1z"/>
			<polygon class="st0" points="250.8,76.4 240.8,76.4 240.8,111.1 237,111.1 237,76.4 226.9,76.4 226.9,75.3 250.8,75.3 			"/>
			<path class="st0" d="M292.2,93.2c0,5.1-1.8,9.5-5.3,12.9c-3.6,3.6-8.2,5.4-13.8,5.4s-10.2-1.8-13.8-5.4
				c-3.5-3.5-5.3-7.8-5.3-12.9c0-5.1,1.8-9.4,5.3-12.9c3.6-3.6,8.2-5.4,13.8-5.4s10.2,1.8,13.8,5.4
				C290.5,83.8,292.2,88.1,292.2,93.2 M288.1,93.2c0-4.9-1.3-9-4-12.3c-2.8-3.4-6.5-5.1-11-5.1c-4.5,0-8.2,1.7-11,5.1
				c-2.7,3.3-4,7.4-4,12.3c0,4.9,1.3,9,4,12.3c2.8,3.4,6.5,5.1,11,5.1c4.5,0,8.1-1.7,11-5.1C286.8,102.2,288.1,98.1,288.1,93.2"/>
			<polygon class="st0" points="334.4,111.1 330.6,111.1 328.7,83.9 315.9,111.7 302.8,84.3 301,111.1 299.7,111.1 302.3,74.7 
				317.4,106.2 331.8,74.7 			"/>
			<path class="st0" d="M380.4,93.2c0,5.1-1.8,9.5-5.3,12.9c-3.6,3.6-8.2,5.4-13.8,5.4c-5.6,0-10.2-1.8-13.8-5.4
				c-3.5-3.5-5.3-7.8-5.3-12.9c0-5.1,1.8-9.4,5.3-12.9c3.6-3.6,8.2-5.4,13.8-5.4c5.6,0,10.2,1.8,13.8,5.4
				C378.6,83.8,380.4,88.1,380.4,93.2 M376.3,93.2c0-4.9-1.3-9-4-12.3c-2.8-3.4-6.5-5.1-11-5.1c-4.5,0-8.2,1.7-11,5.1
				c-2.7,3.3-4,7.4-4,12.3c0,4.9,1.3,9,4,12.3c2.8,3.4,6.5,5.1,11,5.1c4.5,0,8.1-1.7,11-5.1C374.9,102.2,376.3,98.1,376.3,93.2"/>
			<path class="st0" d="M411.9,111.1h-4.1l-12.3-19.9c0.6,0,1.2,0.1,1.7,0.1c5.5,0,8.2-2.4,8.2-7.2c0-5.3-3.4-7.9-10.3-7.8h-2.5
				v34.8h-3.7V75.4c0.6,0,2.8-0.1,6.7-0.1c9-0.1,13.5,2.8,13.5,8.7c0,2.3-0.8,4.2-2.4,5.7c-1.6,1.5-3.8,2.4-6.5,2.7L411.9,111.1z"/>
			<path class="st0" d="M443.7,111.1h-4.1l-12.3-19.9c0.6,0,1.2,0.1,1.7,0.1c5.5,0,8.2-2.4,8.2-7.2c0-5.3-3.4-7.9-10.3-7.8h-2.5
				v34.8h-3.7V75.4c0.6,0,2.8-0.1,6.7-0.1c9-0.1,13.5,2.8,13.5,8.7c0,2.3-0.8,4.2-2.4,5.7c-1.6,1.5-3.8,2.4-6.5,2.7L443.7,111.1z"/>
			<path class="st0" d="M487.2,93.2c0,5.1-1.8,9.5-5.3,12.9c-3.6,3.6-8.2,5.4-13.8,5.4c-5.6,0-10.2-1.8-13.8-5.4
				c-3.5-3.5-5.3-7.8-5.3-12.9c0-5.1,1.8-9.4,5.3-12.9c3.6-3.6,8.2-5.4,13.8-5.4c5.6,0,10.2,1.8,13.8,5.4
				C485.5,83.8,487.2,88.1,487.2,93.2 M483.1,93.2c0-4.9-1.3-9-4-12.3c-2.8-3.4-6.5-5.1-11-5.1c-4.5,0-8.2,1.7-11,5.1
				c-2.7,3.3-4,7.4-4,12.3c0,4.9,1.3,9,4,12.3c2.8,3.4,6.5,5.1,11,5.1c4.5,0,8.1-1.7,11-5.1C481.8,102.2,483.1,98.1,483.1,93.2"/>
			<polygon class="st0" points="545.8,69.3 531.6,114.5 518.5,78.4 506.3,114.4 492.5,69.4 497.5,69.3 508.3,104.3 520.1,68.7 
				533.1,104.7 544.1,69.3 			"/>
			<path class="st0" d="M267.6,26.4c0,0.3,0,0.6,0,0.8v0.8c0,1.1-0.3,2.2-0.9,3.3c-0.6,1-1.4,2-2.5,2.8c-1.1,0.8-2.3,1.4-3.8,1.9
				c-1.4,0.5-3,0.7-4.8,0.7c-2.6,0-4.5-0.5-5.8-1.6c-1.3-1.1-1.9-2.5-1.9-4.2c0-1.4,0.5-2.8,1.5-4.3c1-1.5,2.7-2.8,5.1-4.1
				c2.4-1.2,5.5-2.2,9.4-3c3.9-0.8,8.7-1.2,14.4-1.2c1.8,0,3.4,0,4.8,0.1c1.4,0.1,2.7,0.1,3.7,0.1c0.9,0,1.7,0,2.3-0.1
				c0.6-0.1,1.1-0.1,1.6-0.1c0.4,0,0.7,0.1,1,0.3c0.3,0.2,0.5,0.5,0.5,0.9c0,0.3-0.1,0.5-0.3,0.6c-0.2,0.2-0.5,0.3-0.9,0.3
				c-0.4,0.1-1,0.1-1.8,0.1c-0.7,0-1.7,0-2.8,0c-2.2,0-4,0.4-5.5,1.1c-1.5,0.7-2.8,1.8-4.1,3.2c-1.3,1.4-2.6,3.2-3.9,5.4
				c-1.4,2.2-3,4.7-5.1,7.6c-0.7,1-1.6,2.1-2.6,3.4c-1.1,1.3-2.3,2.4-3.8,3.5c-1.4,1.1-3.1,2-5,2.8c-1.9,0.8-4,1.1-6.3,1.1
				c-0.9,0-1.8-0.1-2.8-0.3c-1-0.2-1.9-0.5-2.7-0.9c-0.8-0.4-1.5-1-2-1.7c-0.5-0.7-0.8-1.6-0.8-2.6c0-0.6,0.2-1.2,0.6-1.6
				c0.4-0.5,1-0.7,1.7-0.7c0.5,0,0.9,0.2,1.3,0.5c0.3,0.3,0.5,0.7,0.5,1.2c0,0.4-0.2,0.8-0.5,1.1c-0.3,0.3-0.7,0.4-1.1,0.4
				c-0.2,0-0.4,0-0.6-0.1c0.2,1.4,0.9,2.5,2.1,3.2c1.3,0.7,2.8,1.1,4.7,1.1c1.8,0,3.4-0.4,4.9-1.1c1.5-0.7,2.9-1.7,4.1-2.9
				c1.3-1.2,2.5-2.6,3.6-4.1c1.1-1.5,2.3-3.1,3.4-4.8c1.1-1.6,2.2-3.3,3.4-4.9c1.1-1.6,2.3-3.1,3.6-4.4c1.3-1.3,2.6-2.5,4-3.4
				c1.4-0.9,3-1.6,4.7-1.9v-0.1c-1.4,0-3-0.1-4.6-0.2c-1.7-0.1-3.2-0.2-4.6-0.2c-4,0-7.5,0.3-10.6,0.8c-3.1,0.5-5.7,1.3-7.8,2.2
				c-2.1,0.9-3.7,2.1-4.8,3.3c-1.1,1.3-1.6,2.7-1.6,4.2c0,1.8,0.6,3.1,1.9,4c1.3,0.9,3.1,1.3,5.4,1.3c1.6,0,3.1-0.2,4.5-0.7
				c1.4-0.4,2.5-1,3.5-1.8c1-0.7,1.7-1.6,2.3-2.6c0.6-1,0.8-2,0.8-3v-0.8c0-0.3,0-0.6,0-0.9H267.6z"/>
			<path class="st0" d="M300.3,17.8l-16.7,23l0.1,0.1c0.6-0.7,1.4-1.6,2.2-2.5c0.8-0.9,1.8-1.8,2.8-2.7c1-0.8,2-1.6,3.1-2.1
				c1.1-0.6,2.2-0.9,3.3-0.9c1.9,0,2.9,0.9,2.9,2.7c0,0.5-0.2,1-0.5,1.7c-0.4,0.6-0.8,1.3-1.4,2c-0.6,0.7-1.1,1.4-1.8,2.2
				c-0.6,0.7-1.2,1.4-1.8,2.1c-0.6,0.7-1,1.3-1.4,1.9c-0.4,0.6-0.5,1.1-0.5,1.5c0,0.3,0.1,0.6,0.3,0.8c0.2,0.2,0.5,0.3,0.8,0.3
				c0.7,0,1.5-0.2,2.4-0.6c0.9-0.4,1.8-1,2.7-1.7c0.9-0.7,1.8-1.4,2.8-2.3c0.9-0.8,1.8-1.7,2.5-2.5c0.8-0.8,1.5-1.6,2.1-2.4
				c0.6-0.7,1.1-1.3,1.3-1.8l0.3,0.1c-0.3,0.6-0.8,1.2-1.5,2c-0.6,0.8-1.3,1.6-2.1,2.5c-0.8,0.9-1.7,1.7-2.6,2.6
				c-0.9,0.9-1.9,1.6-2.8,2.3c-0.9,0.7-1.9,1.2-2.8,1.7c-0.9,0.4-1.8,0.6-2.6,0.6c-0.8,0-1.5-0.2-2-0.7c-0.5-0.5-0.8-1.1-0.8-1.9
				c0-0.6,0.2-1.2,0.5-1.9c0.4-0.7,0.8-1.4,1.4-2.1c0.6-0.7,1.1-1.4,1.8-2.1c0.6-0.7,1.2-1.4,1.8-2c0.6-0.6,1-1.2,1.4-1.8
				c0.4-0.5,0.5-1,0.5-1.4c0-0.5-0.1-0.8-0.4-1c-0.3-0.2-0.6-0.3-1-0.3c-0.8,0-1.7,0.3-2.6,0.8c-1,0.5-2,1.2-3,2.1c-1,0.9-2,1.9-3,3
				c-1,1.1-2,2.2-2.9,3.3c-0.9,1.1-1.7,2.2-2.4,3.1c-0.7,1-1.2,1.8-1.6,2.5h-3.1c1.7-2.5,3.5-5.1,5.3-7.7c1.8-2.6,3.6-5.2,5.5-7.7
				c1.8-2.6,3.6-5.1,5.3-7.6c1.7-2.5,3.4-4.9,4.9-7.1L300.3,17.8z"/>
			<path class="st0" d="M325.9,36.7c-0.5,0.7-1.1,1.5-1.8,2.4c-0.7,0.9-1.5,1.7-2.4,2.6c-0.9,0.9-1.9,1.7-2.9,2.5
				c-1,0.8-2.1,1.5-3.2,2.1c-1.1,0.6-2.2,1.1-3.3,1.5c-1.1,0.4-2.2,0.5-3.3,0.5c-1.3,0-2.3-0.3-3.1-0.9c-0.7-0.6-1.1-1.5-1.1-2.7
				c0-1.3,0.4-2.6,1.3-4c0.8-1.4,1.9-2.7,3.2-3.9c1.3-1.2,2.7-2.2,4.3-3c1.5-0.8,3-1.2,4.4-1.2c0.8,0,1.4,0.2,1.8,0.5
				c0.4,0.3,0.7,0.7,0.7,1.3c0,0.7-0.4,1.4-1.2,2c-0.8,0.7-1.8,1.3-3,1.8c-1.2,0.5-2.5,1-3.8,1.4c-1.4,0.4-2.6,0.7-3.6,0.9
				c-0.3,0.6-0.6,1.2-0.9,2c-0.2,0.7-0.3,1.5-0.3,2.2c0,0.3,0,0.7,0.1,1c0.1,0.3,0.2,0.6,0.4,0.9c0.2,0.3,0.4,0.5,0.7,0.7
				c0.3,0.2,0.7,0.3,1.1,0.3c1,0,2.3-0.3,3.7-0.9c1.4-0.6,2.8-1.5,4.3-2.5c1.4-1.1,2.8-2.2,4.2-3.6c1.3-1.3,2.5-2.7,3.4-4.2
				L325.9,36.7z M318.2,34.4c0-0.4-0.1-0.7-0.4-0.9c-0.2-0.2-0.5-0.3-0.9-0.3c-0.7,0-1.4,0.2-2.1,0.7c-0.8,0.5-1.5,1.1-2.3,1.8
				c-0.8,0.7-1.4,1.5-2.1,2.3c-0.6,0.8-1.1,1.5-1.4,2.2c0.7-0.1,1.6-0.3,2.6-0.7c1-0.3,2-0.7,3-1.2c1-0.5,1.8-1.1,2.5-1.7
				C317.9,35.9,318.2,35.2,318.2,34.4"/>
			<line class="st1" x1="263.4" y1="133.2" x2="299.6" y2="133.2"/>
			<path class="st0" d="M229.5,177.6v3.8c-0.2,1.7-1.4,2.9-3.5,3.7v-1.4c1.1-0.6,1.6-1.4,1.6-2.5h-2v-3.7H229.5z"/>
			<path class="st0" d="M256.6,169.8h2.4c-0.2,2.1-1.3,3.7-3.3,4.7h2.1v-0.9h2.3v7.7c0.2,2-1.1,3.3-4,3.9c-0.3-0.4-0.6-0.5-0.9-0.3
				l-1.1,0.2v-0.2c2.5-0.7,3.8-1.7,3.7-3.1v-2.5c-0.7,0.6-1.1,1.3-1.2,2.2c-1.1-0.9-1.5-2.6-1.2-5h0.1c0.4,1.3,1.2,2.1,2.3,2.6v-3.5
				h-12.7c-0.7,3.3-2.2,6.5-4.3,9.6H240c2.2-3.9,3.3-7.9,3.3-12.1v-7h2.1c-0.4-0.8-0.8-2.1-1.1-3.8l0.2-0.1c1.1,0.9,2,1.7,2.6,2.3
				c-0.6,0.8-1,1.4-1.3,1.7v0.6h9.4v-0.7h2.6c-0.5,2.2-1.7,3.8-3.7,4.9h2.6V169.8z M242.7,161.6l-0.1-0.2c8.4-1.2,13.3-2.1,14.8-2.8
				c0.9,1,1.5,1.7,1.8,2.2C256.9,161.2,251.4,161.4,242.7,161.6 M245.6,177.3h2.2c-0.1,2.8-1.2,4.6-3.3,5.3v-0.9
				c0.7-0.1,1.1-0.6,1.1-1.4V177.3z M255,174.4c0.8-0.5,1.3-1.2,1.5-2.2h-10.9c0,0.6-0.1,1.2-0.2,2v0.2H255z M255.2,168h-9.4v3h7.6
				C254.2,170.3,254.8,169.3,255.2,168 M249.3,177l0.2-0.1c0.5,1.3,0.9,2.6,1.3,3.9c-0.5,0.5-1.1,0.9-1.7,1.3
				c-0.2-0.4-0.2-1-0.2-1.9C249,179.1,249.1,178,249.3,177 M249.4,162l0.1-0.1c0.7,0.6,1.6,1.5,2.6,2.5c-0.4,0.7-0.9,1.4-1.6,1.9
				C249.9,165,249.6,163.6,249.4,162 M252.6,176.9l0.1-0.1c0.2,0.6,0.7,1.8,1.5,3.4c-0.4,0.6-0.9,1.1-1.6,1.5
				C252.3,181,252.3,179.4,252.6,176.9 M256.4,161.9l1.1,0.4l-2.4,3.8l-1.1-0.4L256.4,161.9z"/>
			<path class="st0" d="M275.5,168.2v-9.5h2.7v10.2c0.7,6.5,3.7,10.7,9.1,12.7c-0.5,0.6-0.7,1.6-0.7,3c0,0.1,0,0.2-0.1,0.2h-0.2
				c-5-2.4-7.8-6.8-8.3-13c-0.2,4.1-3.6,8.4-10.4,13.1h-1.2c3.6-2.7,6-5.2,7.3-7.6C274.9,175.1,275.5,172,275.5,168.2"/>
			<path class="st0" d="M309.9,169.8h2.4c-0.2,2.1-1.3,3.7-3.3,4.7h2.1v-0.9h2.3v7.7c0.2,2-1.1,3.3-4,3.9c-0.3-0.4-0.6-0.5-0.9-0.3
				l-1.1,0.2v-0.2c2.5-0.7,3.8-1.7,3.7-3.1v-2.5c-0.7,0.6-1.1,1.3-1.2,2.2c-1.1-0.9-1.5-2.6-1.2-5h0.1c0.4,1.3,1.2,2.1,2.3,2.6v-3.5
				h-12.7c-0.7,3.3-2.2,6.5-4.3,9.6h-0.9c2.2-3.9,3.3-7.9,3.3-12.1v-7h2.1c-0.4-0.8-0.8-2.1-1.1-3.8l0.2-0.1c1.1,0.9,2,1.7,2.6,2.3
				c-0.6,0.8-1,1.4-1.3,1.7v0.6h9.4v-0.7h2.6c-0.5,2.2-1.7,3.8-3.7,4.9h2.6V169.8z M296,161.6l-0.1-0.2c8.4-1.2,13.3-2.1,14.8-2.8
				c0.9,1,1.5,1.7,1.8,2.2C310.2,161.2,304.7,161.4,296,161.6 M298.9,177.3h2.2c-0.1,2.8-1.2,4.6-3.3,5.3v-0.9
				c0.7-0.1,1.1-0.6,1.1-1.4V177.3z M308.3,174.4c0.8-0.5,1.3-1.2,1.5-2.2h-10.9c0,0.6-0.1,1.2-0.2,2v0.2H308.3z M308.4,168H299v3
				h7.6C307.5,170.3,308.1,169.3,308.4,168 M302.6,177l0.2-0.1c0.5,1.3,0.9,2.6,1.3,3.9c-0.5,0.5-1.1,0.9-1.7,1.3
				c-0.2-0.4-0.2-1-0.2-1.9C302.3,179.1,302.4,178,302.6,177 M302.7,162l0.1-0.1c0.7,0.6,1.6,1.5,2.6,2.5c-0.4,0.7-0.9,1.4-1.6,1.9
				C303.2,165,302.8,163.6,302.7,162 M305.9,176.9l0.1-0.1c0.2,0.6,0.7,1.8,1.5,3.4c-0.4,0.6-0.9,1.1-1.6,1.5
				C305.6,181,305.6,179.4,305.9,176.9 M309.7,161.9l1.1,0.4l-2.4,3.8l-1.1-0.4L309.7,161.9z"/>
			<path class="st0" d="M323,165.9h14.1v1.1h-5.6l-2.7,2.3c0.2,0.1,0.5,0.3,0.7,0.4c1.6,0.7,2.4,1.5,2.3,2.5l5.5-3.7l0.9,0.9
				l-4.3,2.8c0.4,3.3,2.6,5.9,6.6,7.7c-1.1,1-1.4,2.1-1.1,3.2l-0.1,0.1c-3.4-1.3-5.4-4.8-6-10.6l-1.3,0.9v8.2
				c0.1,1.5-1.2,2.6-3.8,3.4c-0.1-0.4-0.5-0.4-1.2-0.2l-1.6,0.2l-0.1-0.2c3.3-0.8,4.8-1.9,4.3-3.3v-6.2c-0.9,2.8-3.8,5.6-8.7,8.2
				h-1.3c4-1.8,6.4-4.6,7.3-8.5c-1.1,1.1-3.1,2.5-6,3.9h-1.1c3.7-2,6-4.5,6.9-7.5h2.9c-0.2-0.7-0.5-1.3-1.1-1.8
				c-2.3,1.6-4.7,3-7.3,4.4H320c4.1-2.3,6.8-4.7,8.1-7h-5V165.9z M320.5,161.4h2.4v0.6h6.9c-0.8-0.9-1.5-2-2-3.3v-0.1
				c1.4,0.5,2.6,1,3.5,1.5c-0.4,0.9-0.8,1.5-1.2,1.9h7v-0.9h2.4v4.3c-0.9-0.6-1.7-0.5-2.4,0.3v-2.7h-14.2v2.8h-2.4V161.4z
				 M329.5,174.9v-3c-0.5,0.8-1.2,1.7-2.2,2.7c-0.2,0.1-0.3,0.2-0.4,0.3H329.5z"/>
			<path class="st0" d="M357.8,173.7v2.3h8.4v1.2h-7.1c1.5,2.5,4.2,3.9,8.1,4.2c-1.1,0.4-1.4,1.4-1.1,3c-3.8-1.2-6.3-3.6-7.6-7.1
				h-0.7v8h-2.4v-6.7c-1.2,1.4-3.9,3.3-8.1,5.8h-1.2c3.8-2.3,6.4-4.7,7.7-7H347V176h8.3v-2.3H357.8z M349.2,158.8h2.9
				c-0.3,0.9-0.7,1.6-1.1,2.1h5.4v1.2h-5c0.8,0.5,1.7,1.1,2.6,1.7c-0.2,0.5-0.7,1.1-1.3,1.9c-0.8-1.3-1.4-2.5-1.8-3.6h-0.6
				c-1.2,1.4-2.3,2.5-3.2,3.2h-0.9C348.1,163.4,349.1,161.3,349.2,158.8 M355.2,166.1v1.2h-2.9v4.2c1.1-0.3,2.3-0.7,3.4-1.3v0.2
				c-2.4,2-5.5,3.4-9.3,4.3c0.6-1.1,0.5-2-0.2-2.9c1.5,0.2,2.8,0.2,3.9,0.1v-4.6h-3.2v-1.2H355.2z M358.3,158.7h2.9
				c-0.3,0.7-0.7,1.4-1.1,2.1h6.2v1.2h-5.5c0.9,0.5,1.8,1,2.7,1.5c-0.3,0.6-0.7,1.2-1.2,1.8h1.7v6.4c-0.1,0.4,0.1,0.5,0.6,0.4
				c0.5,0,0.7-0.1,0.7-0.4l0.5-3.7h0.2v3h0.5l-0.1,2.2c-0.1,0.7-0.5,1-1.2,1h-1.7c-1.4,0.1-2-0.4-1.8-1.3v-5.7h-3.1
				c0,0.8,0,1.4-0.1,1.7c0.7,0.4,1.6,1,2.7,1.7c-0.2,0.6-0.5,1.2-1,2c-0.8-1.1-1.4-2.2-1.7-3.1c-0.3,1.2-1.6,2.8-3.8,4.7
				c-0.2,0.1-0.4,0.2-0.5,0.3h-1c2.1-1.3,3.1-3.2,3.1-5.9v-3.4h2.3v0.7h3.1v-0.7h0.4c-0.9-1.5-1.5-2.6-1.7-3.3h-1.1
				c-0.5,0.6-1.3,1.6-2.6,2.9l-0.1,0.1h-0.9C357.4,163,358.2,160.9,358.3,158.7"/>
			<path class="st0" d="M154.9,173.7v2.3h8.4v1.2h-7.1c1.5,2.5,4.2,3.9,8.1,4.2c-1.1,0.4-1.4,1.4-1.1,3c-3.8-1.2-6.3-3.6-7.6-7.1
				h-0.7v8h-2.4v-6.7c-1.2,1.4-3.9,3.3-8.1,5.8h-1.2c3.8-2.3,6.4-4.7,7.7-7h-6.7V176h8.3v-2.3H154.9z M146.4,158.8h2.9
				c-0.3,0.9-0.7,1.6-1.1,2.1h5.4v1.2h-5c0.8,0.5,1.7,1.1,2.6,1.7c-0.2,0.5-0.7,1.1-1.3,1.9c-0.8-1.3-1.4-2.5-1.8-3.6h-0.6
				c-1.2,1.4-2.3,2.5-3.2,3.2h-0.9C145.2,163.4,146.2,161.3,146.4,158.8 M152.3,166.1v1.2h-2.9v4.2c1.1-0.3,2.3-0.7,3.4-1.3v0.2
				c-2.4,2-5.5,3.4-9.3,4.3c0.6-1.1,0.5-2-0.2-2.9c1.5,0.2,2.8,0.2,3.9,0.1v-4.6H144v-1.2H152.3z M155.4,158.7h2.9
				c-0.3,0.7-0.7,1.4-1.1,2.1h6.2v1.2H158c0.9,0.5,1.8,1,2.7,1.5c-0.3,0.6-0.7,1.2-1.2,1.8h1.7v6.4c-0.1,0.4,0.1,0.5,0.6,0.4
				c0.5,0,0.7-0.1,0.7-0.4l0.5-3.7h0.2v3h0.5l-0.1,2.2c-0.1,0.7-0.5,1-1.2,1h-1.7c-1.4,0.1-2-0.4-1.8-1.3v-5.7h-3.1
				c0,0.8,0,1.4-0.1,1.7c0.7,0.4,1.6,1,2.7,1.7c-0.2,0.6-0.5,1.2-1,2c-0.8-1.1-1.4-2.2-1.7-3.1c-0.3,1.2-1.6,2.8-3.8,4.7
				c-0.2,0.1-0.4,0.2-0.5,0.3h-1c2.1-1.3,3.1-3.2,3.1-5.9v-3.4h2.3v0.7h3.1v-0.7h0.4c-0.9-1.5-1.5-2.6-1.7-3.3h-1.1
				c-0.5,0.6-1.3,1.6-2.6,2.9l-0.1,0.1h-0.9C154.5,163,155.3,160.9,155.4,158.7"/>
			<path class="st0" d="M382.1,164.4v-3.5h-9.1v-1.1h20.6v1.1h-9.1v3.5h4.2v-1.1h2.4v11.3h-2.4v-1.1h-4.2c0.1,2.3-0.4,4.2-1.5,5.9
				c2.9,1.4,6.4,2.1,10.8,2.1c-0.9,0.6-1.1,1.6-0.7,3.2c-5.1-1-8.9-2.3-11.4-3.9c-1.6,0.9-4.3,2.2-8,3.9h-1.1c3.9-2,6.5-3.7,7.7-5
				c-1.2-1.3-2.1-3.1-2.7-5.1h-2.2v-11.3h2.4v1.1H382.1z M378,168.5h4.2v-3H378V168.5z M378,172.5h4.2v-3H378V172.5z M382.1,173.6
				H378v1c0.6,1.3,1.7,2.6,3.4,3.9C381.9,177.4,382.2,175.7,382.1,173.6 M388.7,165.5h-4.2v3h4.2V165.5z M384.6,172.5h4.2v-3h-4.2
				V172.5z"/>
			<path class="st0" d="M402.6,158.5h2.4l-0.7,6.8h2.2v-1.5h2.4v6.6h4.4v-4.1h-1.2l5.5-5.5h-8.4v-1.3h9.5l0.5-0.6h0.2v1.9
				c-0.5,0.2-1,0.6-1.6,1.3c0-0.1,0,0-0.1,0.1l-3.9,3.7h2v4.5h4.6v1.3h-4.6V182c0.2,1.1-1.3,2.1-4.5,3c-0.1-0.5-0.3-0.7-0.6-0.5
				l-1.6,0.4l-0.1-0.3c3.3-1,4.8-1.9,4.4-2.6v-10.3h-4.4c-0.3,2.5-1,4.6-2.1,6.3c1.5,1.1,2.5,1.8,2.8,2.2c-0.1,0.5-0.3,1.2-0.7,2
				c-1.1-1.1-2.1-2.1-3.1-3.1c-1,1.1-2.3,2.4-4,4.1c-0.5,0.5-1,1-1.5,1.6h-1c1.5-1.6,3.3-3.7,5.4-6.5c-0.2-0.1-0.5-0.2-0.9-0.5
				c-0.3-0.3-0.6-0.5-0.7-0.6l-0.1,0.7h-2.4l1.2-11.5h-2.4v-1.1h2.4C402.2,163,402.4,160.7,402.6,158.5 M406.5,171.2v-4.9h-2.2
				l-1,9.8c0.9,0.5,1.5,0.8,2,1C406.1,175.5,406.5,173.6,406.5,171.2"/>
			<path class="st0" d="M438,158.7h2.9c-0.2,2.4-0.6,4.4-1.2,6h3.9v-1.5h2.4v18.4c-0.1,1.4-1.2,2.5-3.4,3.2
				c-0.2-0.3-0.5-0.4-0.9-0.3l-1.5,0.3l-0.2-0.2c2.2-0.7,3.4-1.6,3.5-2.8v-16.1h-4.4c-0.7,1.2-1.6,2.6-2.9,4.3h-0.5v13.1h-2.4v-1.4
				h-3.9v2.2H427v-20.4h2.4v1.1h0.6c0.7-1.1,0.9-3,0.9-5.8h2.7c0,2.1-1,4-2.9,5.8h2.7v-1.1h2.4v6.2
				C437.4,167.2,438.1,163.5,438,158.7 M429.4,180.7h3.9v-15h-3.9v5.8h2.7v1.1h-2.7V180.7z M437.8,169.8l0.1-0.1
				c1.5,1.8,2.6,3.2,3.3,4.4c-0.3,1.2-0.8,2.2-1.5,3C438.7,175,438.1,172.6,437.8,169.8"/>
			<path class="st0" d="M456,180h-2.4v-20h2.4v1.3h2.9v-1.3h2.4v18.8h-2.4v-1.3H456V180z M456,176.4h2.9v-14.1H456v5.8h2.2v1.1H456
				V176.4z M463.5,175.1v-16.2h2.4v1.5h4.4v-1.5h2.4v23.4c0.2,1.1-1.1,2.1-3.8,2.8c-0.1-0.4-0.4-0.5-0.9-0.3L466,185l-0.1-0.3
				c2-0.6,3.2-1,3.7-1.3c0.6-0.4,0.9-0.9,0.9-1.6v-20.4H466v5.5h3.4v1.1H466v5.5h3.2v1.1H466c0.2,3.7-2,7.2-6.7,10.6h-1.1
				C462,182.2,463.8,178.8,463.5,175.1"/>
			<path class="st0" d="M484.7,184.4H482v-25.3h2.7v1.5H495v-1.5h2.7v25.1H495v-2.6h-10.3V184.4z M484.7,180.4H495v-18.6h-10.3v7.9
				h8.6v1.3h-8.6V180.4z"/>
			<path class="st0" d="M67.5,179.8h-2.1v-20.2h2.1v1.3h2.6v-1.3h2.1v18.9h-2.1v-1.3h-2.6V179.8z M67.5,176.1h2.6v-14.2h-2.6v5.8
				h1.9v1.1h-1.9V176.1z M74.2,174.8v-16.3h2.1v1.5h3.9v-1.5h2.1V182c0.1,1.1-1,2.1-3.3,2.8c-0.1-0.4-0.3-0.5-0.8-0.3l-1.9,0.3
				l-0.1-0.3c1.7-0.6,2.8-1,3.2-1.3c0.5-0.4,0.8-0.9,0.8-1.6v-20.5h-3.9v5.6h3v1.1h-3v5.6h2.8v1.1h-2.8c0.2,3.7-1.8,7.3-5.9,10.6h-1
				C72.8,182,74.4,178.6,74.2,174.8"/>
			<path class="st0" d="M179.8,165.5h-2.2V165h-1.4v6.2h1.4v-0.8h2.2v1.9c-1.9,0.2-3.4,0.2-4.7-0.1c0.4,0.5,0.5,1,0.3,1.5
				c1.5,0,3-0.2,4.5-0.5h0.3c1.6-0.4,2.9-0.9,3.7-1.6c0.3,1.4,0.9,2.4,1.8,2.9c0-0.9,0.1-1.4,0.4-1.6c-0.9-0.2-1.6-0.8-2.1-1.6h0.7
				v-6.2h-1.4v0.7h-2.2v-1.2h5.2v-0.1v-0.7v-0.3h-5.2v-1.1h-1.4v1.1H175v0.3v0.7v0.1h4.8V165.5z M179.8,169.6h-2.2v-1.4h2.2V169.6z
				 M179.8,167.6h-2.2v-1.4h2.2V167.6z M181.2,168.3h2.2v1.4h-2.2V168.3z M183.9,171v0.2c-0.8,0.4-1.7,0.7-2.7,0.8v-1.6h2.2v0.7
				H183.9z M183.4,167.6h-2.2v-1.4h2.2V167.6z"/>
			<path class="st0" d="M180.7,178.6c-0.7-0.5-1.6-1.1-2.7-1.8l-0.1,0c0.4,1,1.1,1.9,1.9,2.7C180.3,179.3,180.6,179,180.7,178.6"/>
			<path class="st0" d="M184.2,173.9h-1.5v1.6h-7.5v1.1h7.5v2.9c0,0.4-0.9,0.7-2.7,0.9l0.2,0.1l0.9-0.1c0.1,0,0.3,0,0.4,0.1
				c1.7-0.2,2.6-0.6,2.6-1.1v-2.8h2.3v-0.3v-0.4v-0.4h-2.3V173.9z"/>
			<path class="st0" d="M187.2,158.5v1.3h-13.6v-1.3h-2.1V185h2.1v-2.6h13.6v1.3h2.1v-25.2H187.2z M187.2,181.4h-13.6v-20.5h13.6
				V181.4z"/>
			<path class="st0" d="M201.7,160.2h-2.1v-1.3h-2V185h2v-4l0.9-0.3c0.4-0.3,0.8-0.2,1,0.1c1.4-0.6,2-1.4,2-2.6v-7.1
				c-0.1-1.6-0.9-2.8-2.4-3.7c1.7-0.4,2.6-1.2,2.6-2.6v-6h-1.9V160.2z M201.7,165.2c0,0.9-0.4,1.6-1.3,2.3c0.6,0.6,1,1.6,1,2.8v7.9
				c0.1,0.9-0.5,1.6-1.8,2.1v-19.1h2.1V165.2z"/>
			<path class="st0" d="M216.6,179.2L216.6,179.2c-2.4-2-3.6-4.8-3.9-8.4l2.5-3l0-0.1l-0.6-1.1l-3.1,4c0-0.9-0.5-1.8-1.4-2.5
				l-0.4-0.4l1.5-2.5h3.3v-1.4h-8.4v1.4h2.9c-0.8,2.5-2.3,5.1-4.6,7.6l-0.2,0.2h0.9l0,0c1.5-1.4,2.9-3,4.2-4.7
				c0.3,0.5,0.4,1.1,0.5,1.7h-1.7l0,0.1c-0.5,3.3-1.9,6-4,8.2l-0.2,0.2h0.9l0,0c1.5-1.5,2.6-2.8,3.3-3.9c-0.6,4-2,7-4.2,8.8
				l-0.2,0.2h1.1l0,0c2.6-2.6,4.2-5.3,4.9-8.1l0,5.9c0.3,1.5-0.5,2.7-2.4,3.5l-0.1,0l0.1,0.4l1-0.3l0,0c0.2-0.1,0.4-0.1,0.4-0.1
				c0.1,0,0.1,0.1,0.1,0.3l0,0.2l0.1-0.1c1.5-0.9,2.3-2.2,2.3-3.8v-9l0.6-0.7c0.3,6.2,1.5,10.1,3.5,11.5l0.1,0.1l0.1-0.2l0,0
				C215.7,181.5,215.9,180.4,216.6,179.2L216.6,179.2z M209.9,171.1v2.6h-1.2c0-0.1,0.1-0.1,0.1-0.2
				C209.3,172.6,209.7,171.8,209.9,171.1"/>
			<path class="st0" d="M215.4,164.1L215.4,164.1l0.3-0.1l0-0.1c-0.2-0.6-0.1-1.1,0.3-1.4l0.2-0.2l-0.3-0.1c-2-0.7-3.4-1.9-4.1-3.7
				l0-0.1h-0.4l0,0.2C211.7,161.1,213.1,163,215.4,164.1"/>
			<path class="st0" d="M205.2,163.9c0.2-0.1,0.5-0.4,0.8-0.7c2-1.5,3.2-3,3.6-4.4l0.1-0.2h-2.2l0,0.1c-0.2,1.8-1.2,3.4-2.9,4.9
				l-0.4,0.3L205.2,163.9L205.2,163.9z"/>
			<path class="st0" d="M92.6,166.9c0.4-0.3,0.8-1.3,1.3-2.4c0.4-1,0.9-2.1,1.4-2.7h0.3c0.1,0.4,0.2,0.9,0.4,1.6
				c0.3,1.4,0.7,3.1,1.2,3.9l0.1,0.2l0.1-0.2c0.6-0.7,1-1.3,1.2-1.7l0.1-0.1l-0.1-0.1c-0.4-0.3-0.8-1.1-1.1-1.9
				c-0.3-0.6-0.6-1.3-0.8-1.6h4.2v-1.4h-4.6c0.3-0.5,0.6-1,0.8-1.6l0.1-0.2h-3l0,0.2c-0.2,2.3-1.1,6.5-2.6,8l-0.3,0.3L92.6,166.9
				L92.6,166.9z"/>
			<path class="st0" d="M99.9,166.9h1.2l0,0c0.4-0.3,0.8-1.3,1.3-2.4c0.4-1,0.9-2.1,1.4-2.7h0.3c0.5,1.2,2.5,4.5,3.1,5.5l0.1,0.2
				l0.1-0.2c0.6-0.7,1-1.3,1.2-1.7l0.1-0.1l-0.1-0.1c-0.4-0.3-1.1-1.1-1.8-1.9c-0.6-0.7-1.2-1.3-1.6-1.7h4.1v-1.4h-4.6
				c0.3-0.5,0.6-1,0.8-1.6l0.1-0.2h-3l0,0.2c-0.2,2.3-1.1,6.5-2.6,8L99.9,166.9z"/>
			<path class="st0" d="M100.1,179.2V179c-1,0.6-2,1-3,1.3v-10.1h2.6v-1.2h-7.3v1.2h2.8v10.5c-1,0.1-2.1,0.1-3.4-0.1
				c0.6,0.9,0.7,1.8,0.2,2.9C95.2,182.7,97.9,181.2,100.1,179.2"/>
			<path class="st0" d="M109.2,181.3v-3H109l-0.4,3.8c0,0.3-0.2,0.4-0.6,0.4c-0.4,0.1-0.6-0.1-0.5-0.4v-13.8h-2v0.8h-2.7v-0.8h-2
				V179c0.1,2.7-0.8,4.6-2.7,5.9h0.9c0.1-0.1,0.2-0.2,0.4-0.3c1.9-1.9,3-4.8,3.3-6.1c0.3,0.9,0.8,2,1.5,3.1c0.4-0.8,0.7-1.5,0.9-2
				c-0.9-0.7-1.7-1.3-2.4-1.7c0.1-0.4,0.1-7,0.1-7.8h2.7v13.1c-0.1,0.9,0.4,1.4,1.6,1.3h1.5c0.6,0.1,1-0.2,1.1-1l0.1-2.3H109.2z"/>
			<path class="st0" d="M121.4,161.4h-4v-1h4v-1.2h2.6c0,3.2-1.6,6.3-4.9,9.2h2.8v-1h2.3c0,5.6-0.9,9.7-2.6,12
				c0.7,1,1.8,1.6,3.3,1.7h12.4c-1,0.7-1.2,1.4-0.5,2h-11.7c-2-0.1-3.5-0.9-4.6-2.4c-1.1,1.2-2,2.2-2.8,2.9h-0.9
				c1.2-1.2,2.1-2.5,2.9-3.9c-0.9-2-1.3-5.1-1.4-9.1h0.1c0.1,0.3,0.3,1.1,0.6,2.2c0.4,1.7,0.9,3.4,1.6,5.1c0.7-1.6,1.1-3.5,1.2-5.5
				v-3.1h-2.8c-0.4,0-0.8,0.2-1.3,0.5l-0.1,0.1v-1.6C119.8,167,121,164.6,121.4,161.4 M124.5,164.6h4v-2.4h-3v-1h3v-2.7h2.3v2.7h2.3
				v-0.8h2.3v4.3h1.9v1h-1.9v4.5h-2.3v-1h-2.3v2.9h4.4v1h-4.4v2.7h5.2v1h-5.2v3.8h-2.3v-3.8h-4.2v-1h4.2V173h-3.3v-1h3.3v-2.9h-3v-1
				h3v-2.4h-4V164.6z M130.8,164.6h2.3v-2.4h-2.3V164.6z M130.8,168.1h2.3v-2.4h-2.3V168.1z"/>
		</g>
	</g>
</g>
</svg>
