<?xml version="1.0" encoding="utf-8"?>
<!-- Generator: Adobe Illustrator 27.0.0, SVG Export Plug-In . SVG Version: 6.00 Build 0)  -->
<svg version="1.1" id="圖層_1" xmlns="http://www.w3.org/2000/svg" xmlns:xlink="http://www.w3.org/1999/xlink" x="0px" y="0px"
	 viewBox="0 0 61 38" style="enable-background:new 0 0 61 38;" xml:space="preserve">
<g>
	<g>
		<path d="M14,0h-2L0,9h2L14,0z M0,9v1h61V9H0z M10.8,27.5H6.7V28L8,28.1c0,1.4,0,2.8,0,4.1V33c0,1.4,0,2.8,0,4.1l-1.4,0.2v0.5h4.6
			v-0.5l-1.5-0.2c0-1.2,0-2.4,0-3.5h0.7c3.2,0,4.4-1.4,4.4-3.1C14.8,28.7,13.5,27.5,10.8,27.5z M10.5,33.1H9.7v-0.8
			c0-1.4,0-2.8,0-4.2h0.9c1.8,0,2.6,0.9,2.6,2.5C13.2,32,12.4,33.1,10.5,33.1z M26.1,34.8c-0.3-1.2-0.8-1.8-2-2
			c1.9-0.3,2.7-1.4,2.7-2.6c0-1.7-1.3-2.7-3.7-2.7h-4.5V28l1.4,0.2c0,1.4,0,2.8,0,4.1V33c0,1.4,0,2.8,0,4.1l-1.4,0.2v0.5h4.5v-0.5
			l-1.4-0.2c0-1.4,0-2.7,0-4.2h0.8c1.2,0,1.7,0.4,2,1.6l0.6,2.3c0.2,0.8,0.6,1.1,1.7,1.1c0.5,0,0.9-0.1,1.3-0.2v-0.5l-1.2-0.1
			L26.1,34.8z M22.8,32.4h-1.2c0-1.6,0-3,0-4.4h1.2c1.6,0,2.3,0.8,2.3,2.1C25.2,31.4,24.4,32.4,22.8,32.4z M38.5,37.2h-3.8
			c0-1.4,0-2.8,0-4.4h2.2l0.2,1.5h0.6v-3.6h-0.6l-0.2,1.5h-2.2c0-1.4,0-2.8,0-4.2h3.5l0.5,2.1h0.7v-2.7h-7.7V28l1.4,0.2
			c0,1.4,0,2.8,0,4.1V33c0,1.4,0,2.8,0,4.1l-1.4,0.2v0.5h8V35H39L38.5,37.2z M49.7,28l1.5,0.2l-2.5,7.7L46,28.2l1.5-0.1v-0.5h-4.4
			V28l1.1,0.1l3.6,9.8h0.8l3.3-9.7l1.3-0.2v-0.5h-3.5C49.7,27.5,49.7,28,49.7,28z"/>
	</g>
</g>
</svg>
