<?xml version="1.0" encoding="utf-8"?>
<!-- Generator: Adobe Illustrator 27.0.0, SVG Export Plug-In . SVG Version: 6.00 Build 0)  -->
<svg version="1.1" id="圖層_1" xmlns="http://www.w3.org/2000/svg" xmlns:xlink="http://www.w3.org/1999/xlink" x="0px" y="0px"
	 viewBox="0 0 61 38" style="enable-background:new 0 0 61 38;" xml:space="preserve">
<style type="text/css">
	.st0{fill-rule:evenodd;clip-rule:evenodd;}
</style>
<g>
	<g>
		<path class="st0" d="M13.8,28l1.7,0.2v7.1L10,27.5H7.3V28l1.1,0.1l0.2,0.3l-0.1,8.7l-1.3,0.2v0.5H11v-0.5l-1.7-0.2v-7.9l6.2,8.7
			h0.7v-9.7l1.3-0.2v-0.5h-3.7V28z M28.4,37.2h-3.8c0-1.4,0-2.8,0-4.4h2.2l0.2,1.5h0.6v-3.6H27l-0.2,1.5h-2.2c0-1.4,0-2.8,0-4.2h3.5
			l0.5,2.1h0.7v-2.7h-7.7V28l1.4,0.2c0,1.4,0,2.8,0,4.1V33c0,1.4,0,2.8,0,4.1l-1.4,0.2v0.5h8V35h-0.7L28.4,37.2z M38.6,32.1l2.5-3.9
			l1.4-0.2v-0.5H39V28l1.3,0.2l-2,3.4l-2-3.4l1.4-0.2v-0.5h-4.5V28l1.3,0.1l2.7,4.8l-2.7,4.2l-1.4,0.2v0.5h3.4v-0.5l-1.3-0.2
			l2.2-3.7l2.2,3.8l-1.4,0.2v0.5h4.4v-0.5l-1.3-0.1L38.6,32.1z M46.2,27.5l-0.1,2.8h0.8l0.5-2.2h2.3c0,1.4,0,2.8,0,4.2V33
			c0,1.4,0,2.8,0,4.1l-1.5,0.2v0.5H53v-0.5l-1.5-0.2c0-1.4,0-2.8,0-4.1v-0.7c0-1.4,0-2.8,0-4.2h2.3l0.5,2.2h0.8L55,27.5H46.2z M61,9
			L49,0h-2l12,9H61z M0,10h61V9H0V10z"/>
	</g>
</g>
</svg>
