<?xml version="1.0" encoding="utf-8"?>
<!-- Generator: Adobe Illustrator 27.0.0, SVG Export Plug-In . SVG Version: 6.00 Build 0)  -->
<svg version="1.1" id="projecttext_06.svg" xmlns="http://www.w3.org/2000/svg" xmlns:xlink="http://www.w3.org/1999/xlink" x="0px"
	 y="0px" viewBox="0 0 274 110" style="enable-background:new 0 0 274 110;" xml:space="preserve">
<style type="text/css">
	.st0{enable-background:new    ;}
	.st1{fill:#FFFFFF;}
</style>
<g class="st0">
	<path class="st1" d="M6.8,37.3v6c0,0.4-2,2.2-5.3,2.2H0.3V2.8l7.3,2.8h6.2L17,2.1l6.4,5.1c-0.4,0.5-1.3,1-2.5,1.3v31.7
		c-0.1,0.5-3.1,2.2-5.5,2.2h-1.1v-5.2H6.8z M6.8,7.4v13.1h7.6V7.4H6.8z M14.4,35.5V22.2H6.8v13.3H14.4z M53.7,6.1
		c-0.4,0.5-1.3,1-2.5,1.2v40.8c0,4.7-1.1,7.5-9.4,8.2c-0.2-2.2-0.7-3.8-1.7-4.8c-1.1-1.1-2.8-1.9-6.2-2.4v-0.8c0,0,7.7,0.4,9.2,0.4
		c1.2,0,1.5-0.4,1.5-1.3V33.7h-12C31,42.5,26.6,50.8,14,56.3l-0.5-0.5c11.3-8.7,13.1-19.6,13.1-32v-22l7.6,2.8h9.8L47,0.9L53.7,6.1z
		 M44.5,31.9V19.9H33.2v3.8c0,2.7-0.1,5.5-0.4,8.2H44.5z M33.2,6.2v11.9h11.3V6.2H33.2z"/>
	<path class="st1" d="M91.3,40.6c5.5,4.1,14.9,6.7,23.1,7.6l-0.1,0.7c-2.7,0.7-4.7,3.1-5.5,6.6c-8.8-2.8-15.3-7.7-19.4-14.8v14.1
		c0,0.5-3.1,1.6-5.8,1.6h-1.2V44.4C76.5,49.6,68,53.3,58,55.7l-0.4-0.8c8.2-3.4,14.9-8.6,19.1-14.3H59.3l-0.5-1.7h23.6v-5.3
		c-2.1,1-4.7,1.8-7.9,2.5l-0.4-0.7C83,31.6,84.5,26.6,84.5,22v-7.5c-0.5,0.3-1,0.5-1.6,0.8l-0.7-0.6c1.5-1.7,3.1-4,4.4-6.6
		c-0.3,0.3-0.8,0.4-1.3,0.4H75.3c3.5,1.8,3.7,4.3,2.5,5.8c0.9,0.7,3.7,2.8,5.6,4.4c-0.2,0.7-0.8,1-1.7,1h-7.6v8
		c2.7-0.4,5.5-0.8,8.3-1.2l0.1,0.8c-4.1,1.9-10.1,4.4-18.8,7.7c-0.2,0.7-0.9,1.3-1.5,1.4l-3.5-6.8c2-0.2,5.1-0.5,8.9-1v-8.9h-6.9
		l-0.5-1.7h14.1l2.3-2.8c-1.1,0.5-2.6,0.4-3.9-0.8c0.1-1.9-0.6-4.1-1.5-5.8h-1.7c-3.4,3.8-7.3,6.7-11.3,8.6l-0.7-0.7
		c3.5-3.7,7-9.8,9-16.4L75,3.4c-0.3,0.7-1.1,1.2-2.4,1C72,5.2,71.5,6,71,6.7h7.3l3.1-4.3c0,0,3.5,3,5.6,5c1.2-2.3,2.2-4.9,3.1-7.6
		l8.4,2.7c-0.2,0.7-1,1.3-2.3,1.2c-0.7,1-1.4,2-2.1,2.9h10l3.5-4.4c0,0,3.9,3.1,6.4,5.2c-0.2,0.7-0.8,1-1.7,1H99.9
		c3.6,1.7,3.8,4.3,2.6,5.8l4.6,3.8c-0.4,0.4-0.9,0.7-1.9,0.9v8.6c0,0.7,0.1,0.8,0.9,0.8h1.7h1.4c0.4,0,0.7-0.1,0.9-0.5
		c0.5-0.8,1.2-3.1,2-5.6h0.7L113,28c1.4,0.6,1.7,1.3,1.7,2.4c0,2.3-2.2,3.6-7.6,3.6h-2.9c-4.3,0-4.9-1.3-4.9-5V18.5h-8.3v2.8
		c12.8,2.1,7.6,11.3,2.8,7.4c-0.2-2.2-1.4-4.6-2.8-6.3c-0.1,3.4-1.3,7.6-7.7,10.8l8.3,0.7c-0.1,0.8-0.5,1.4-2.1,1.7v3.3h14l3.5-4.3
		c0,0,4,2.9,6.5,5.1c-0.1,0.7-0.8,1-1.7,1H91.3z M92.4,8.5c-2.3,2.4-4.9,4.3-7.4,5.8l6.9,2.5h6.7l1.2-1.3c-0.8-0.1-1.6-0.4-2.5-1
		c-0.1-2-1.1-4.3-2.2-6H92.4z"/>
	<path class="st1" d="M143.1,37.6c-1.2,1.9-3.8,5.6-7,9.5c-0.2,1.2-0.7,2-1.3,2.5l-5.5-5.6c1.9-1.6,2.2-2,2.2-3.1V24.5h-2.8
		c-0.2,12.8-1,24-9.8,31.9l-0.8-0.8c4.9-8.6,4.7-19.3,4.7-31h-4.6l-0.5-1.7h9v-22l7.8,0.7c-0.1,0.8-0.5,1.3-1.7,1.4v19.9h1.6
		l3.1-3.8c0,0,3.5,2.6,5.8,4.6c-0.2,0.7-0.8,1-1.6,1h-4.4V40c1.8-1,3.7-2,5.6-3.1L143.1,37.6z M119.4,4.8
		c10.9,8.7,5.3,18.4,1.1,13.6c0.3-4.3-0.8-9.6-1.9-13.4L119.4,4.8z M170.4,37.7c0,0.2-0.7,0.6-1.9,1c0.2,0.1,4,3.1,6.2,5.2
		c-0.1,0.7-0.7,1-1.6,1H160v9.8c0,0.7-2.7,2-4.9,2h-1.2V44.8H142l-0.5-1.7h12.4V37h-4.3v1.6c0,0.5-1.8,1.4-4.7,1.4h-1v-22l6.4,2.5
		h3.6v-4.9h-10.4L143,14h10.9V7.2L162,8c-0.2,0.8-0.5,1.3-2,1.6V14h3.7l2.6-3.4l-0.6,0.4l-0.6-0.4c0.4-1.4,0.8-3.5,1.3-5.2h-17.8
		c1.4,10.3-9.2,8.2-6.2,2.6c-0.3,0.1-0.7,0.1-1.1,0.1c-1.4,2.8-4.4,7.8-7.1,11.5l-0.7-0.2c1-4.6,2.1-11.7,2.5-15.1l7.2,2.6
		c1.7-1,3.1-3.2,3.4-6.2h0.8c0.4,1.1,0.7,2,0.9,2.9h17.9l3.1-3.1l5.5,5.2c-0.5,0.5-1.1,0.7-2.3,0.7c-1.4,1.1-3.5,2.6-5.3,3.7
		c0.9,0.7,3.8,2.9,5.7,4.6c-0.2,0.7-0.7,1-1.6,1H160v4.9h4.1l2.9-3.3l5.6,4.3c-0.4,0.5-1,0.8-2.2,1.1V37.7z M149.7,22.3v5.6h4.3
		v-5.6H149.7z M153.9,35.3v-5.8h-4.3v5.8H153.9z M160,22.3v5.6h4.3v-5.6H160z M164.3,29.6H160v5.8h4.3V29.6z M168.5,38.6
		c-0.8,0.2-1.9,0.4-3.1,0.4h-1.1v-2H160v6.1h5L168.5,38.6z"/>
	<path class="st1" d="M226.9,48.1c0,0,4.2,3.2,6.8,5.5c-0.2,0.7-0.8,1-1.7,1h-53.3l-0.5-1.7h24v-8.3h-17.5l-0.5-1.7h18v-7.7h-19.1
		l-0.5-1.7h36.6l3.7-4.6c0,0,4.2,3.1,6.7,5.3c-0.1,0.7-0.8,1-1.6,1h-18.6v7.7h9.6l3.6-4.5c0,0,4,3.1,6.5,5.2c-0.2,0.7-0.8,1-1.6,1
		h-18.1v8.3h13.7L226.9,48.1z M194.1,28.6c0,0.5-2.1,2-5.7,2h-1.2V4.8l7.7,2.9h5.8c0.4-2.2,0.8-5.6,1-7.9l10.9,1.7
		c-0.2,1.1-1.1,1.6-2.5,1.6c-1.6,1.3-4.1,3.2-6,4.6h13.1l3.3-3.6l6.8,5.2c-0.4,0.5-1.1,1.1-2.4,1.3v17c-0.1,0.5-3.5,1.9-5.9,1.9
		h-1.2v-2.4h-23.8V28.6z M194.1,9.4v7h23.8v-7H194.1z M217.8,25.5v-7.4h-23.8v7.4H217.8z"/>
</g>
<g class="st0">
	<path class="st1" d="M5.5,96.8v4c0,0.3-1.4,1.4-3.6,1.4H1.2V73.8L6,75.7h4.2l2.2-2.4l4.3,3.4c-0.3,0.4-0.8,0.7-1.6,0.8v21.2
		c0,0.4-2.1,1.5-3.7,1.5h-0.7v-3.4H5.5z M5.5,76.9v8.7h5.1v-8.7H5.5z M10.6,95.6v-8.9H5.5v8.9H10.6z M36.8,76
		c-0.3,0.3-0.8,0.7-1.7,0.8V104c0,3.2-0.7,5-6.2,5.5c-0.2-1.4-0.4-2.5-1.2-3.2c-0.8-0.7-1.8-1.2-4.2-1.6v-0.6c0,0,5.1,0.3,6.1,0.3
		c0.8,0,1-0.2,1-0.9v-9.2h-8c-1,5.9-3.9,11.4-12.4,15.1l-0.4-0.4c7.6-5.8,8.7-13,8.7-21.4V73.1l5.1,1.8h6.5l2-2.4L36.8,76z
		 M30.6,93.2v-8h-7.6v2.6c0,1.8-0.1,3.7-0.3,5.5H30.6z M23.1,76.1V84h7.6v-7.9H23.1z"/>
	<path class="st1" d="M61.8,99c3.6,2.7,9.9,4.5,15.4,5.1l-0.1,0.4c-1.8,0.5-3.2,2.1-3.6,4.4c-5.8-1.9-10.2-5.1-13-9.8v9.4
		c0,0.3-2,1.1-3.8,1.1h-0.8v-8c-4,3.5-9.6,6-16.3,7.5l-0.3-0.5c5.4-2.2,10-5.8,12.8-9.5H40.5l-0.3-1.2h15.8v-3.6
		c-1.4,0.6-3.1,1.2-5.3,1.6l-0.2-0.4c5.9-2.5,6.9-5.8,6.9-8.9v-5c-0.4,0.2-0.7,0.4-1,0.5l-0.5-0.4c1-1.2,2-2.6,3-4.4
		c-0.2,0.2-0.5,0.3-0.9,0.3h-6.7c2.4,1.2,2.5,2.9,1.7,3.8c0.6,0.4,2.4,1.8,3.7,3C56.4,84.8,56,85,55.4,85h-5.1v5.3
		c1.8-0.2,3.7-0.5,5.6-0.8l0.1,0.6c-2.7,1.2-6.7,2.9-12.6,5.2c-0.2,0.5-0.6,0.8-1,0.9l-2.3-4.6c1.3-0.1,3.4-0.4,6-0.7V85h-4.6
		l-0.3-1.2h9.4l1.5-1.8c-0.7,0.3-1.7,0.2-2.6-0.6c0.1-1.3-0.4-2.8-1-3.9h-1.1c-2.2,2.6-4.9,4.4-7.6,5.7l-0.4-0.4
		c2.4-2.4,4.7-6.6,6-11l5.6,2.3c-0.2,0.5-0.7,0.8-1.6,0.7c-0.4,0.6-0.7,1.1-1.1,1.6h4.8l2.1-2.8c0,0,2.4,2,3.8,3.4
		c0.8-1.6,1.5-3.3,2-5l5.6,1.8c-0.2,0.4-0.7,0.8-1.6,0.8c-0.4,0.7-0.9,1.3-1.4,1.9h6.7l2.3-3c0,0,2.6,2,4.2,3.5
		c-0.1,0.4-0.6,0.6-1.1,0.6h-8.2c2.4,1.1,2.6,2.9,1.7,3.9l3,2.6c-0.2,0.3-0.6,0.5-1.3,0.6v5.7c0,0.4,0.1,0.5,0.6,0.5h1.1h1
		c0.3,0,0.4-0.1,0.6-0.4c0.3-0.5,0.8-2,1.4-3.8h0.4l0.1,3.8c1,0.4,1.1,0.8,1.1,1.6c0,1.5-1.4,2.4-5.1,2.4h-2c-2.9,0-3.2-0.9-3.2-3.3
		v-7h-5.5v1.8c8.5,1.4,5,7.5,1.9,5c-0.1-1.4-1-3-1.9-4.2c0,2.3-0.8,5.1-5.2,7.2l5.5,0.5c-0.1,0.6-0.4,1-1.4,1.1v2.2h9.3l2.4-2.9
		c0,0,2.6,2,4.3,3.4C76.5,98.8,76,99,75.4,99H61.8z M62.6,77.6c-1.5,1.6-3.2,2.9-5,3.8l4.6,1.7h4.5l0.8-0.8c-0.5,0-1.1-0.2-1.6-0.7
		c-0.1-1.4-0.8-2.9-1.4-4H62.6z"/>
	<path class="st1" d="M94.1,89c-0.3,0.4-0.6,0.6-1.5,0.7c-0.6,4.1-1.6,8-3.6,11.4c4.4,2.4,10.3,2.9,18.6,2.9c2.1,0,6.9,0,9.4,0v0.5
		c-1.8,0.4-2.7,2-2.8,3.9h-7c-9.3,0-15.6-1-20-4.8c-1.9,2.3-4.4,4.4-7.8,6l-0.3-0.5c2.8-2.1,4.8-4.7,6.1-7.6
		c-1.8-2.4-3.3-5.7-4.4-10l0.4-0.2c1.3,3.5,2.9,6,4.9,7.9c1.1-3.1,1.7-6.5,2-10h-2.4l-1.4,1.4L80.5,88c0.4-0.3,0.9-0.6,1.4-0.8
		c1.4-2.7,3.4-7.1,4.5-9.9h-6.6l-0.4-1.2h7l2-2l4,3.6c-0.3,0.4-1,0.6-1.7,0.6c-1.1,2.5-3.1,6.8-4.6,9.6h1.8l2.2-2.3L94.1,89z
		 M114.3,78.6c0,0,2.2,2.2,3.3,3.6c-0.1,0.4-0.5,0.6-1,0.6h-4.5v5.5c0,0.3-2.2,1.1-3.6,1.1h-0.7V88h-3.6v4.1h3.8l2.2-3
		c0,0,2.6,2,4.1,3.4c-0.1,0.4-0.5,0.6-1.1,0.6h-9.1v4.2h4.8l2.5-3.2c0,0,2.9,2.1,4.6,3.7c-0.1,0.4-0.6,0.6-1.1,0.6h-10.8v3.7
		c0,0.4-1.8,1.2-3.6,1.2h-0.9v-4.9h-8.2l-0.3-1.2h8.5v-4.2h-6.3l-0.3-1.1h6.6V88h-5.8l-0.4-1.2h6.2v-4.1H91l-0.3-1.2h9.1v-4h-6.2
		l-0.4-1.1h6.6v-4.4l6,0.6c-0.1,0.6-0.4,1-1.5,1.2v2.7h3.2l2-2.2l4.3,3.2c-0.2,0.3-0.8,0.6-1.6,0.8v3.3h0.3L114.3,78.6z M104.2,81.6
		h3.6v-4h-3.6V81.6z M107.8,82.8h-3.6v4.1h3.6V82.8z"/>
	<path class="st1" d="M133.3,77.2c0,0,2.3,1.8,3.7,3.1c-0.1,0.4-0.5,0.6-1.1,0.6h-16.2l-0.3-1.2h11.9L133.3,77.2z M142.1,78.1
		c0,3.3-0.7,8.7-7.4,11.8c0.2,0.2,0.5,0.5,0.8,0.7c-0.1,0.4-0.5,0.6-1.1,0.6h-12.9l-0.3-1.2h8.8l1.9-2.4c0,0,1.1,0.9,2.2,1.8
		c3.4-3.5,3.8-7.8,3.8-11.4v-5l4.9,1.8h3.4l2.1-2.3l3.9,3.2c-0.2,0.3-0.7,0.5-1.4,0.6V83c0,0.4,0.1,0.6,0.6,0.6h1h1
		c0.2,0,0.6,0,0.8,0c0.2,0,0.6-0.1,0.9-0.2h0.4l0.2,0c1,0.5,1.3,0.9,1.3,1.7c0,1.6-1.4,2.5-5.2,2.5h-1.9c-3,0-3.4-0.8-3.4-3.4V76
		h-4.5V78.1z M129.9,84.9l1.9-2.5c0,0,2.2,1.8,3.5,3c-0.1,0.4-0.5,0.6-1.1,0.6h-12.8l-0.3-1.2H129.9z M130.2,107.5v-2.2h-4.5v2.4
		c0,0.4-1.8,1.3-3.5,1.3h-0.6V93.6l4.2,1.7h4l1.9-2l4.1,3c-0.2,0.3-0.8,0.6-1.5,0.8v9.3c0,0.3-2,1.2-3.4,1.2H130.2z M123.8,72.6
		c10.6,0.5,6.8,8.5,2.5,5.7c-0.3-2-1.6-4.2-2.8-5.5L123.8,72.6z M130.2,104.3v-7.8h-4.5v7.8H130.2z M154.7,91.8
		c-0.3,0.4-0.7,0.5-1.7,0.6c-1.4,3.4-3.3,6.4-5.9,8.9c2.9,1.6,6.4,2.7,10,3.4l0,0.4c-1.8,0.4-3.2,1.8-3.8,4c-3.6-1.4-6.6-3-9.1-5.4
		c-3.4,2.6-7.8,4.4-13.2,5.7l-0.2-0.5c4.7-1.8,8.5-4.3,11.4-7.4c-1.9-2.6-3.4-5.8-4.3-9.9h-1.9l-0.4-1.2H148l2.6-2.4L154.7,91.8z
		 M138.7,91.6c1.2,3.2,3,5.7,5.4,7.6c1.8-2.3,3.1-4.8,4-7.6H138.7z"/>
	<path class="st1" d="M178.5,77.8c-7.8,1.8-12.2,6.5-13.1,13.2c1.8-1.7,4-2.6,6.5-2.6c5,0,8.1,3.6,8.1,8.8c0,5.6-3.8,9.4-9.8,9.4
		c-6.4,0-10.4-4.5-10.4-12.1c0-9,7.2-16.5,18.4-17.7L178.5,77.8z M174.7,97.5c0-4.6-1.7-6.9-4.7-6.9c-1.6,0-3.4,0.4-4.8,1.8
		c0,0.4,0,0.9,0,1.3c0,7.8,2,11.4,5.1,11.4C172.8,105.1,174.7,102.8,174.7,97.5z"/>
</g>
</svg>
