<?xml version="1.0" encoding="utf-8"?>
<!-- Generator: Adobe Illustrator 27.0.0, SVG Export Plug-In . SVG Version: 6.00 Build 0)  -->
<svg version="1.1" id="projecttext_04.svg" xmlns="http://www.w3.org/2000/svg" xmlns:xlink="http://www.w3.org/1999/xlink" x="0px"
	 y="0px" viewBox="0 0 274 110" style="enable-background:new 0 0 274 110;" xml:space="preserve">
<style type="text/css">
	.st0{enable-background:new    ;}
	.st1{fill:#FFFFFF;}
</style>
<g class="st0">
	<path class="st1" d="M6.8,37.3v6c0,0.4-2,2.2-5.3,2.2H0.3V2.8l7.3,2.8h6.2L17,2.1l6.4,5.1c-0.4,0.5-1.3,1-2.5,1.3v31.7
		c-0.1,0.5-3.1,2.2-5.5,2.2h-1.1v-5.2H6.8z M6.8,7.4v13.1h7.6V7.4H6.8z M14.4,35.5V22.2H6.8v13.3H14.4z M53.7,6.1
		c-0.4,0.5-1.3,1-2.5,1.2v40.8c0,4.7-1.1,7.5-9.4,8.2c-0.2-2.2-0.7-3.8-1.7-4.8c-1.1-1.1-2.8-1.9-6.2-2.4v-0.8c0,0,7.7,0.4,9.2,0.4
		c1.2,0,1.5-0.4,1.5-1.3V33.7h-12C31,42.5,26.6,50.8,14,56.3l-0.5-0.5c11.3-8.7,13.1-19.6,13.1-32v-22l7.6,2.8h9.8L47,0.9L53.7,6.1z
		 M44.5,31.9V19.9H33.2v3.8c0,2.7-0.1,5.5-0.4,8.2H44.5z M33.2,6.2v11.9h11.3V6.2H33.2z"/>
	<path class="st1" d="M96.3,40.6c5.5,4.1,14.9,6.7,23.1,7.6l-0.1,0.7c-2.7,0.7-4.7,3.1-5.5,6.6c-8.8-2.8-15.3-7.7-19.4-14.8v14.1
		c0,0.5-3.1,1.6-5.8,1.6h-1.2V44.4c-5.9,5.2-14.5,8.9-24.5,11.3l-0.4-0.8c8.2-3.4,14.9-8.6,19.1-14.3H64.3l-0.5-1.7h23.6v-5.3
		c-2.1,1-4.7,1.8-7.9,2.5l-0.4-0.7C88,31.6,89.5,26.6,89.5,22v-7.5c-0.5,0.3-1,0.5-1.6,0.8l-0.7-0.6c1.5-1.7,3.1-4,4.4-6.6
		c-0.3,0.3-0.8,0.4-1.3,0.4H80.3c3.5,1.8,3.7,4.3,2.5,5.8c0.9,0.7,3.7,2.8,5.6,4.4c-0.2,0.7-0.8,1-1.7,1h-7.6v8
		c2.7-0.4,5.5-0.8,8.3-1.2l0.1,0.8c-4.1,1.9-10.1,4.4-18.8,7.7c-0.2,0.7-0.9,1.3-1.5,1.4l-3.5-6.8c2-0.2,5.1-0.5,8.9-1v-8.9h-6.9
		l-0.5-1.7h14.1l2.3-2.8c-1.1,0.5-2.6,0.4-3.9-0.8c0.1-1.9-0.6-4.1-1.5-5.8h-1.7c-3.4,3.8-7.3,6.7-11.3,8.6l-0.7-0.7
		c3.5-3.7,7-9.8,9-16.4L80,3.4c-0.3,0.7-1.1,1.2-2.4,1C77,5.2,76.5,6,75.9,6.7h7.3l3.1-4.3c0,0,3.5,3,5.6,5c1.2-2.3,2.2-4.9,3.1-7.6
		l8.4,2.7c-0.2,0.7-1,1.3-2.3,1.2c-0.7,1-1.4,2-2.1,2.9h10l3.5-4.4c0,0,3.9,3.1,6.4,5.2c-0.2,0.7-0.8,1-1.7,1h-12.2
		c3.6,1.7,3.8,4.3,2.6,5.8l4.6,3.8c-0.4,0.4-0.9,0.7-1.9,0.9v8.6c0,0.7,0.1,0.8,0.9,0.8h1.7h1.4c0.4,0,0.7-0.1,0.9-0.5
		c0.5-0.8,1.2-3.1,2-5.6h0.7l0.2,5.8c1.4,0.6,1.7,1.3,1.7,2.4c0,2.3-2.2,3.6-7.6,3.6h-2.9c-4.3,0-4.9-1.3-4.9-5V18.5h-8.3v2.8
		c12.8,2.1,7.6,11.3,2.8,7.4c-0.2-2.2-1.4-4.6-2.8-6.3c-0.1,3.4-1.3,7.6-7.7,10.8l8.3,0.7c-0.1,0.8-0.5,1.4-2.1,1.7v3.3h14l3.5-4.3
		c0,0,4,2.9,6.5,5.1c-0.1,0.7-0.8,1-1.7,1H96.3z M97.4,8.5c-2.3,2.4-4.9,4.3-7.4,5.8l6.9,2.5h6.7l1.2-1.3c-0.8-0.1-1.6-0.4-2.5-1
		c-0.1-2-1.1-4.3-2.2-6H97.4z"/>
	<path class="st1" d="M153,37.6c-1.2,1.9-3.8,5.6-7,9.5c-0.2,1.2-0.7,2-1.3,2.5l-5.5-5.6c1.9-1.6,2.2-2,2.2-3.1V24.5h-2.8
		c-0.2,12.8-1,24-9.8,31.9l-0.8-0.8c4.9-8.6,4.7-19.3,4.7-31h-4.6l-0.5-1.7h9v-22l7.8,0.7c-0.1,0.8-0.5,1.3-1.7,1.4v19.9h1.6
		l3.1-3.8c0,0,3.5,2.6,5.8,4.6c-0.2,0.7-0.8,1-1.6,1h-4.4V40c1.8-1,3.7-2,5.6-3.1L153,37.6z M129.3,4.8c10.9,8.7,5.3,18.4,1.1,13.6
		c0.3-4.3-0.8-9.6-1.9-13.4L129.3,4.8z M180.4,37.7c0,0.2-0.7,0.6-1.9,1c0.2,0.1,4,3.1,6.2,5.2c-0.1,0.7-0.7,1-1.6,1H170v9.8
		c0,0.7-2.7,2-4.9,2h-1.2V44.8h-11.9l-0.5-1.7h12.4V37h-4.3v1.6c0,0.5-1.8,1.4-4.7,1.4h-1v-22l6.4,2.5h3.6v-4.9h-10.4L153,14h10.9
		V7.2L172,8c-0.2,0.8-0.5,1.3-2,1.6V14h3.7l2.6-3.4l-0.6,0.4l-0.6-0.4c0.4-1.4,0.8-3.5,1.3-5.2h-17.8c1.4,10.3-9.2,8.2-6.2,2.6
		c-0.3,0.1-0.7,0.1-1.1,0.1c-1.4,2.8-4.4,7.8-7.1,11.5l-0.7-0.2c1-4.6,2.1-11.7,2.5-15.1l7.2,2.6c1.7-1,3.1-3.2,3.4-6.2h0.8
		c0.4,1.1,0.7,2,0.9,2.9h17.9l3.1-3.1l5.5,5.2c-0.5,0.5-1.1,0.7-2.3,0.7c-1.4,1.1-3.5,2.6-5.3,3.7c0.9,0.7,3.8,2.9,5.7,4.6
		c-0.2,0.7-0.7,1-1.6,1H170v4.9h4.1l2.9-3.3l5.6,4.3c-0.4,0.5-1,0.8-2.2,1.1V37.7z M159.6,22.3v5.6h4.3v-5.6H159.6z M163.9,35.3
		v-5.8h-4.3v5.8H163.9z M170,22.3v5.6h4.3v-5.6H170z M174.3,29.6H170v5.8h4.3V29.6z M178.5,38.6c-0.8,0.2-1.9,0.4-3.1,0.4h-1.1v-2
		H170v6.1h5L178.5,38.6z"/>
	<path class="st1" d="M241.9,48.1c0,0,4.2,3.2,6.8,5.5c-0.2,0.7-0.8,1-1.7,1h-53.3l-0.5-1.7h24v-8.3h-17.5l-0.5-1.7h18v-7.7H198
		l-0.5-1.7h36.6l3.7-4.6c0,0,4.2,3.1,6.7,5.3c-0.1,0.7-0.8,1-1.6,1h-18.6v7.7h9.6l3.6-4.5c0,0,4,3.1,6.5,5.2c-0.2,0.7-0.8,1-1.6,1
		h-18.1v8.3h13.7L241.9,48.1z M209,28.6c0,0.5-2.1,2-5.7,2h-1.2V4.8l7.7,2.9h5.8c0.4-2.2,0.8-5.6,1-7.9l10.9,1.7
		c-0.2,1.1-1.1,1.6-2.5,1.6c-1.6,1.3-4.1,3.2-6,4.6h13.1l3.3-3.6l6.8,5.2c-0.4,0.5-1.1,1.1-2.4,1.3v17c-0.1,0.5-3.5,1.9-5.9,1.9
		h-1.2v-2.4H209V28.6z M209,9.4v7h23.8v-7H209z M232.7,25.5v-7.4H209v7.4H232.7z"/>
</g>
<g class="st0">
	<path class="st1" d="M5.5,96.8v4c0,0.3-1.4,1.4-3.6,1.4H1.2V73.8L6,75.7h4.2l2.2-2.4l4.3,3.4c-0.3,0.4-0.8,0.7-1.6,0.8v21.2
		c0,0.4-2.1,1.5-3.7,1.5h-0.7v-3.4H5.5z M5.5,76.9v8.7h5.1v-8.7H5.5z M10.6,95.6v-8.9H5.5v8.9H10.6z M36.8,76
		c-0.3,0.3-0.8,0.7-1.7,0.8V104c0,3.2-0.7,5-6.2,5.5c-0.2-1.4-0.4-2.5-1.2-3.2c-0.8-0.7-1.8-1.2-4.2-1.6v-0.6c0,0,5.1,0.3,6.1,0.3
		c0.8,0,1-0.2,1-0.9v-9.2h-8c-1,5.9-3.9,11.4-12.4,15.1l-0.4-0.4c7.6-5.8,8.7-13,8.7-21.4V73.1l5.1,1.8h6.5l2-2.4L36.8,76z
		 M30.6,93.2v-8h-7.6v2.6c0,1.8-0.1,3.7-0.3,5.5H30.6z M23.1,76.1V84h7.6v-7.9H23.1z"/>
	<path class="st1" d="M63.8,99c3.6,2.7,9.9,4.5,15.4,5.1l-0.1,0.4c-1.8,0.5-3.2,2.1-3.6,4.4c-5.8-1.9-10.2-5.1-13-9.8v9.4
		c0,0.3-2,1.1-3.8,1.1h-0.8v-8c-4,3.5-9.6,6-16.3,7.5l-0.3-0.5c5.4-2.2,10-5.8,12.8-9.5H42.5l-0.3-1.2h15.8v-3.6
		c-1.4,0.6-3.1,1.2-5.3,1.6l-0.2-0.4c5.9-2.5,6.9-5.8,6.9-8.9v-5c-0.4,0.2-0.7,0.4-1,0.5l-0.5-0.4c1-1.2,2-2.6,3-4.4
		c-0.2,0.2-0.5,0.3-0.9,0.3h-6.7c2.4,1.2,2.5,2.9,1.7,3.8c0.6,0.4,2.4,1.8,3.7,3C58.4,84.8,58,85,57.4,85h-5.1v5.3
		c1.8-0.2,3.7-0.5,5.6-0.8l0.1,0.6c-2.7,1.2-6.7,2.9-12.6,5.2c-0.2,0.5-0.6,0.8-1,0.9l-2.3-4.6c1.3-0.1,3.4-0.4,6-0.7V85h-4.6
		l-0.3-1.2h9.4l1.5-1.8c-0.7,0.3-1.7,0.2-2.6-0.6c0.1-1.3-0.4-2.8-1-3.9h-1.1c-2.2,2.6-4.9,4.4-7.6,5.7l-0.4-0.4
		c2.4-2.4,4.7-6.6,6-11l5.6,2.3c-0.2,0.5-0.7,0.8-1.6,0.7c-0.4,0.6-0.7,1.1-1.1,1.6h4.8l2.1-2.8c0,0,2.4,2,3.8,3.4
		c0.8-1.6,1.5-3.3,2-5l5.6,1.8c-0.2,0.4-0.7,0.8-1.6,0.8c-0.4,0.7-0.9,1.3-1.4,1.9h6.7l2.3-3c0,0,2.6,2,4.2,3.5
		c-0.1,0.4-0.6,0.6-1.1,0.6h-8.2c2.4,1.1,2.6,2.9,1.7,3.9l3,2.6c-0.2,0.3-0.6,0.5-1.3,0.6v5.7c0,0.4,0.1,0.5,0.6,0.5h1.1h1
		c0.3,0,0.4-0.1,0.6-0.4c0.3-0.5,0.8-2,1.4-3.8h0.4l0.1,3.8c1,0.4,1.1,0.8,1.1,1.6c0,1.5-1.4,2.4-5.1,2.4h-2c-2.9,0-3.2-0.9-3.2-3.3
		v-7h-5.5v1.8c8.5,1.4,5,7.5,1.9,5c-0.1-1.4-1-3-1.9-4.2c0,2.3-0.8,5.1-5.2,7.2l5.5,0.5c-0.1,0.6-0.4,1-1.4,1.1v2.2h9.3l2.4-2.9
		c0,0,2.6,2,4.3,3.4C78.5,98.8,78,99,77.4,99H63.8z M64.6,77.6c-1.5,1.6-3.2,2.9-5,3.8l4.6,1.7h4.5l0.8-0.8c-0.5,0-1.1-0.2-1.6-0.7
		c-0.1-1.4-0.8-2.9-1.4-4H64.6z"/>
	<path class="st1" d="M98.1,89c-0.3,0.4-0.6,0.6-1.5,0.7c-0.6,4.1-1.6,8-3.6,11.4c4.4,2.4,10.3,2.9,18.6,2.9c2.1,0,6.9,0,9.4,0v0.5
		c-1.8,0.4-2.7,2-2.8,3.9h-7c-9.3,0-15.6-1-20-4.8c-1.9,2.3-4.4,4.4-7.8,6l-0.3-0.5c2.8-2.1,4.8-4.7,6.1-7.6
		c-1.8-2.4-3.3-5.7-4.4-10l0.4-0.2c1.3,3.5,2.9,6,4.9,7.9c1.1-3.1,1.7-6.5,2-10h-2.4l-1.4,1.4L84.5,88c0.4-0.3,0.9-0.6,1.4-0.8
		c1.4-2.7,3.4-7.1,4.5-9.9h-6.6l-0.4-1.2h7l2-2l4,3.6c-0.3,0.4-1,0.6-1.7,0.6c-1.1,2.5-3.1,6.8-4.6,9.6h1.8l2.2-2.3L98.1,89z
		 M118.3,78.6c0,0,2.2,2.2,3.3,3.6c-0.1,0.4-0.5,0.6-1,0.6h-4.5v5.5c0,0.3-2.2,1.1-3.6,1.1h-0.7V88h-3.6v4.1h3.8l2.2-3
		c0,0,2.6,2,4.1,3.4c-0.1,0.4-0.5,0.6-1.1,0.6h-9.1v4.2h4.8l2.5-3.2c0,0,2.9,2.1,4.6,3.7c-0.1,0.4-0.6,0.6-1.1,0.6h-10.8v3.7
		c0,0.4-1.8,1.2-3.6,1.2h-0.9v-4.9h-8.2l-0.3-1.2h8.5v-4.2h-6.3l-0.3-1.1h6.6V88h-5.8l-0.4-1.2h6.2v-4.1H95l-0.3-1.2h9.1v-4h-6.2
		l-0.4-1.1h6.6v-4.4l6,0.6c-0.1,0.6-0.4,1-1.5,1.2v2.7h3.2l2-2.2l4.3,3.2c-0.2,0.3-0.8,0.6-1.6,0.8v3.3h0.3L118.3,78.6z M108.2,81.6
		h3.6v-4h-3.6V81.6z M111.8,82.8h-3.6v4.1h3.6V82.8z"/>
	<path class="st1" d="M139.3,77.2c0,0,2.3,1.8,3.7,3.1c-0.1,0.4-0.5,0.6-1.1,0.6h-16.2l-0.3-1.2h11.9L139.3,77.2z M148.1,78.1
		c0,3.3-0.7,8.7-7.4,11.8c0.2,0.2,0.5,0.5,0.8,0.7c-0.1,0.4-0.5,0.6-1.1,0.6h-12.9l-0.3-1.2h8.8l1.9-2.4c0,0,1.1,0.9,2.2,1.8
		c3.4-3.5,3.8-7.8,3.8-11.4v-5l4.9,1.8h3.4l2.1-2.3l3.9,3.2c-0.2,0.3-0.7,0.5-1.4,0.6V83c0,0.4,0.1,0.6,0.6,0.6h1h1
		c0.2,0,0.6,0,0.8,0c0.2,0,0.6-0.1,0.9-0.2h0.4l0.2,0c1,0.5,1.3,0.9,1.3,1.7c0,1.6-1.4,2.5-5.2,2.5h-1.9c-3,0-3.4-0.8-3.4-3.4V76
		h-4.5V78.1z M135.9,84.9l1.9-2.5c0,0,2.2,1.8,3.5,3c-0.1,0.4-0.5,0.6-1.1,0.6h-12.8l-0.3-1.2H135.9z M136.2,107.5v-2.2h-4.5v2.4
		c0,0.4-1.8,1.3-3.5,1.3h-0.6V93.6l4.2,1.7h4l1.9-2l4.1,3c-0.2,0.3-0.8,0.6-1.5,0.8v9.3c0,0.3-2,1.2-3.4,1.2H136.2z M129.8,72.6
		c10.6,0.5,6.8,8.5,2.5,5.7c-0.3-2-1.6-4.2-2.8-5.5L129.8,72.6z M136.2,104.3v-7.8h-4.5v7.8H136.2z M160.7,91.8
		c-0.3,0.4-0.7,0.5-1.7,0.6c-1.4,3.4-3.3,6.4-5.9,8.9c2.9,1.6,6.4,2.7,10,3.4l0,0.4c-1.8,0.4-3.2,1.8-3.8,4c-3.6-1.4-6.6-3-9.1-5.4
		c-3.4,2.6-7.8,4.4-13.2,5.7l-0.2-0.5c4.7-1.8,8.5-4.3,11.4-7.4c-1.9-2.6-3.4-5.8-4.3-9.9h-1.9l-0.4-1.2H154l2.6-2.4L160.7,91.8z
		 M144.7,91.6c1.2,3.2,3,5.7,5.4,7.6c1.8-2.3,3.1-4.8,4-7.6H144.7z"/>
	<path class="st1" d="M188.6,98.5h-4.5v7.5h-4.8v-7.5h-11.8v-2.8l12.9-18.4h3.6V95h4.5V98.5z M179.3,95V81.4L169.8,95H179.3z"/>
</g>
</svg>
