<?xml version="1.0" encoding="utf-8"?>
<!-- Generator: Adobe Illustrator 27.0.0, SVG Export Plug-In . SVG Version: 6.00 Build 0)  -->
<svg version="1.1" id="圖層_1" xmlns="http://www.w3.org/2000/svg" xmlns:xlink="http://www.w3.org/1999/xlink" x="0px" y="0px"
	 viewBox="0 0 32 32" style="enable-background:new 0 0 32 32;" xml:space="preserve">
<style type="text/css">
	.st0{enable-background:new    ;}
	.st1{clip-path:url(#SVGID_00000124149984359172993970000017768903516496412801_);fill:#FFFFFF;}
	.st2{clip-path:url(#SVGID_00000040546694331313422560000007686050854439782017_);fill:#FFFFFF;}
</style>
<g class="st0">
	<g>
		<g>
			<g>
				<defs>
					<rect id="SVGID_1_" x="1.3" y="1.3" width="29.4" height="29.4"/>
				</defs>
				<clipPath id="SVGID_00000097480041043628780590000008590820995077268118_">
					<use xlink:href="#SVGID_1_"  style="overflow:visible;"/>
				</clipPath>
				<path style="clip-path:url(#SVGID_00000097480041043628780590000008590820995077268118_);fill:#FFFFFF;" d="M1.3,17.4
					c0-4.6,0.1-7.8,0.6-11C2.2,3.8,4.2,2,6.7,1.7c3.8-0.4,7.4-0.6,11.2-0.5c2.6,0.1,5.2,0.2,7.8,0.6c2.5,0.4,4.2,2.4,4.5,5
					c0.5,4.6,0.6,9.2,0.4,13.9c-0.1,1.7-0.2,3.4-0.5,5.1c-0.4,2.5-2.4,4.3-4.9,4.5c-4.7,0.5-9.4,0.6-14.1,0.4
					c-1.6-0.1-3.2-0.2-4.8-0.5c-2.6-0.4-4.3-2.3-4.6-4.9C1.5,22.2,1.3,19.1,1.3,17.4 M16,22.7c1.9,0,3.9-0.1,5.9-0.3
					c1.5-0.2,2.8-1,2.9-2.2c0.5-2.6,0.6-5.2,0.1-7.8c-0.3-1.7-1.3-2.7-3-2.8c-3.9-0.4-7.8-0.4-11.7,0c-1.5,0.2-2.8,1-2.9,2.2
					c-0.5,2.6-0.6,5.2-0.1,7.8c0.3,1.7,1.3,2.6,3,2.8C12,22.6,14.1,22.7,16,22.7"/>
			</g>
			<g>
				<defs>
					<rect id="SVGID_00000175314736867395286850000014655323164710722960_" x="1.3" y="1.3" width="29.4" height="29.4"/>
				</defs>
				<clipPath id="SVGID_00000070084486775647409730000010980208228977583543_">
					<use xlink:href="#SVGID_00000175314736867395286850000014655323164710722960_"  style="overflow:visible;"/>
				</clipPath>
				<path style="clip-path:url(#SVGID_00000070084486775647409730000010980208228977583543_);fill:#FFFFFF;" d="M13.8,19.5v-7
					c1.9,1.2,3.8,2.3,5.7,3.5C17.7,17.2,15.7,18.3,13.8,19.5"/>
			</g>
		</g>
	</g>
</g>
</svg>
